<svg width="48" height="48" viewBox="0 0 48 48" fill="none" xmlns="http://www.w3.org/2000/svg">
<path d="M29.7 43.7325V45.36C29.7 45.465 29.61 45.5475 29.5125 45.5475H10.95C10.845 45.5475 10.77 45.4575 10.77 45.36V43.7325C10.77 43.6275 10.86 43.5525 10.95 43.5525H29.505C29.61 43.5525 29.7 43.635 29.7 43.7325Z" fill="white"/>
<path d="M45.0599 13.7326C45.0374 13.7176 45.0149 13.6951 44.9999 13.6651C44.8874 13.5151 44.8499 13.3351 44.9024 13.1551C44.9024 13.1476 44.9024 13.1476 44.9099 13.1401C45.0749 12.5401 45.1649 11.9176 45.1649 11.2951C45.1649 10.6576 45.0749 10.0351 44.9099 9.45757C44.9024 9.45007 44.9024 9.45007 44.9024 9.44257C44.8724 9.35257 44.8724 9.26257 44.8874 9.17257C44.8949 9.15007 44.9024 9.12007 44.9099 9.09757C44.9174 9.06757 44.9324 9.03757 44.9474 9.00757C44.9624 8.97007 44.9849 8.93257 45.0149 8.90257C45.0449 8.85757 45.0899 8.82007 45.1349 8.78257L46.6424 7.74007L45.6224 6.00007L43.9724 6.77257C43.9274 6.78757 43.8824 6.80257 43.8299 6.81757C43.7624 6.83257 43.6874 6.83257 43.6199 6.81757C43.6124 6.81757 43.6049 6.81007 43.5974 6.81757C43.5674 6.81007 43.5374 6.80257 43.5149 6.78757C43.4774 6.77257 43.4399 6.75757 43.4099 6.73507C43.3649 6.71257 43.3274 6.68257 43.2899 6.64507C42.4199 5.73007 41.3174 5.08507 40.1174 4.79257C40.1099 4.79257 40.0949 4.78507 40.0874 4.78507C39.9674 4.75507 39.8699 4.69507 39.7949 4.61257C39.7649 4.57507 39.7349 4.53757 39.7124 4.49257C39.6974 4.47007 39.6899 4.44757 39.6824 4.42507C39.6599 4.37257 39.6449 4.32007 39.6374 4.26757L39.4874 2.44507H37.4699L37.3199 4.26007C37.2974 4.48507 37.1549 4.67257 36.9524 4.74757C36.9299 4.76257 36.8999 4.77007 36.8699 4.77757C36.8549 4.77757 36.8399 4.78507 36.8249 4.78507C35.6249 5.08507 34.5449 5.72257 33.6674 6.63757C33.6374 6.66757 33.6074 6.69757 33.5699 6.71257C33.5624 6.72757 33.5474 6.73507 33.5324 6.73507C33.4949 6.75757 33.4574 6.77257 33.4199 6.78757C33.3599 6.81007 33.2924 6.81757 33.2399 6.81757C33.2324 6.81757 33.2324 6.81757 33.2249 6.81757C33.1874 6.81757 33.1499 6.81007 33.1124 6.80257C33.0674 6.79507 33.0224 6.78007 32.9849 6.76507L31.3349 5.98507L30.3149 7.73257L31.8149 8.77507C31.8599 8.80507 31.8974 8.84257 31.9274 8.88007C31.9574 8.91007 31.9799 8.94757 32.0024 8.99257C32.0474 9.07507 32.0699 9.16507 32.0699 9.26257C32.0699 9.31507 32.0624 9.37507 32.0474 9.42007C32.0474 9.43507 32.0399 9.44257 32.0399 9.45757C31.9349 9.81007 31.8674 10.1701 31.8299 10.5226C31.7999 10.7701 31.7849 11.0251 31.7849 11.2726C31.7849 11.7226 31.8299 12.1576 31.9199 12.5851C31.9274 12.6151 31.9349 12.6451 31.9349 12.6826C31.9724 12.8326 32.0099 12.9826 32.0549 13.1326C32.0849 13.2301 32.0849 13.3126 32.0699 13.4026C32.0624 13.4326 32.0549 13.4551 32.0474 13.4776C32.0249 13.5451 31.9949 13.6051 31.9574 13.6501C31.9424 13.6801 31.9199 13.7026 31.8974 13.7176C31.8749 13.7401 31.8449 13.7626 31.8224 13.7851L30.3149 14.8276L31.3349 16.5826L32.9099 15.8401C32.9324 15.8251 32.9624 15.8101 32.9849 15.8026C33.0224 15.7801 33.0674 15.7651 33.1124 15.7576C33.1574 15.7501 33.1949 15.7426 33.2399 15.7426C33.2999 15.7426 33.3674 15.7576 33.4199 15.7726C33.4574 15.7876 33.4949 15.8026 33.5324 15.8251C33.5474 15.8326 33.5624 15.8401 33.5699 15.8476C33.6074 15.8701 33.6374 15.9001 33.6674 15.9301C34.5299 16.8376 35.6324 17.4826 36.8399 17.7826C36.8474 17.7826 36.8624 17.7901 36.8699 17.7901C36.9299 17.8051 36.9899 17.8276 37.0349 17.8651C37.0649 17.8801 37.0949 17.9026 37.1249 17.9326C37.1399 17.9401 37.1474 17.9551 37.1624 17.9701C37.1774 17.9776 37.1849 17.9926 37.1924 18.0076C37.2149 18.0301 37.2299 18.0601 37.2449 18.0901C37.2599 18.1126 37.2749 18.1351 37.2824 18.1576C37.2974 18.2026 37.3049 18.2476 37.3124 18.2926C37.3199 18.3001 37.3199 18.3151 37.3199 18.3226L37.4699 20.1451H39.4949L39.6449 18.3226C39.6449 18.3151 39.6449 18.3001 39.6524 18.2926C39.6524 18.2626 39.6599 18.2401 39.6674 18.2101C39.6749 18.1726 39.6899 18.1351 39.7124 18.1051C39.7274 18.0751 39.7499 18.0376 39.7724 18.0076C39.8174 17.9476 39.8699 17.8951 39.9299 17.8651C39.9749 17.8276 40.0349 17.8051 40.0874 17.7901C40.1024 17.7901 40.1099 17.7826 40.1249 17.7826C41.3399 17.4751 42.4274 16.8451 43.2899 15.9451C43.3199 15.9151 43.3499 15.8851 43.3874 15.8626C43.3949 15.8551 43.4099 15.8476 43.4249 15.8401C43.4624 15.8176 43.4999 15.8026 43.5374 15.7876C43.5974 15.7726 43.6649 15.7576 43.7174 15.7576C43.7624 15.7576 43.7999 15.7651 43.8449 15.7726C43.8899 15.7801 43.9349 15.7951 43.9724 15.8176C43.9949 15.8251 44.0249 15.8401 44.0474 15.8551L45.6299 16.5976L46.6499 14.8501L45.1499 13.8076C45.1049 13.7776 45.0824 13.7551 45.0599 13.7326ZM41.8574 14.6776C40.9499 15.5776 39.7499 16.0726 38.4749 16.0726C38.4674 16.0726 38.4674 16.0726 38.4674 16.0726C35.8274 16.0726 33.6749 13.9201 33.6824 11.2801C33.6824 8.64007 35.8349 6.49507 38.4749 6.49507C39.7574 6.49507 40.9574 6.99007 41.8649 7.89757C42.7724 8.80507 43.2599 10.0051 43.2599 11.2876C43.2674 12.5701 42.7649 13.7701 41.8574 14.6776Z" fill="white"/>
<path d="M39.3 21.2924V37.4174C39.3 38.0249 38.805 38.5049 38.205 38.5049H2.26504C1.65754 38.5049 1.17004 38.0249 1.17004 37.4174V12.2024C1.17004 11.5949 1.65754 11.1074 2.26504 11.1074H30.6225C30.615 11.1674 30.615 11.2199 30.615 11.2724C30.615 11.5574 30.63 11.8424 30.6675 12.1199H3.24754C2.92504 12.1199 2.66254 12.3824 2.66254 12.7049V36.9074C2.66254 37.2449 2.92504 37.4999 3.24754 37.4999H37.23C37.5525 37.4999 37.815 37.2449 37.815 36.9149V21.2924H39.3Z" fill="white"/>
<path d="M38.475 16.0726C39.7575 16.0726 40.9575 15.5776 41.865 14.6776C42.7725 13.7701 43.2675 12.5701 43.2675 11.2876C43.2675 10.0051 42.78 8.80512 41.8725 7.89762C40.965 6.99012 39.765 6.49512 38.4825 6.49512C35.8425 6.49512 33.69 8.64012 33.69 11.2801C33.6825 13.9276 35.835 16.0726 38.475 16.0726ZM38.4825 7.66512C39.45 7.66512 40.3575 8.04012 41.04 8.72262C41.7225 9.41262 42.09 10.3201 42.09 11.2801C42.09 12.2476 41.7075 13.1551 41.0325 13.8376C40.3425 14.5201 39.435 14.8876 38.4825 14.8876C38.475 14.8876 38.475 14.8876 38.475 14.8876C36.48 14.8876 34.8525 13.2601 34.86 11.2651C34.86 9.28512 36.48 7.66512 38.4825 7.66512Z" fill="white"/>
<path d="M2.265 39.6826H13.845L12.87 42.3826H10.95C10.2 42.3826 9.6 42.9901 9.6 43.7326V45.3601C9.6 46.1101 10.2075 46.7176 10.95 46.7176H29.505C30.255 46.7176 30.8625 46.1026 30.8625 45.3601V43.7326C30.8625 42.9826 30.2475 42.3826 29.505 42.3826H27.585L26.61 39.6826H38.1975C39.4425 39.6826 40.455 38.6701 40.455 37.4251V21.0826C40.5375 20.9926 40.5825 20.8876 40.5975 20.7601L40.7625 18.8101C41.91 18.4726 42.9525 17.8651 43.8225 17.0476L45.5925 17.8801C45.675 17.9251 45.7575 17.9401 45.84 17.9401C46.0425 17.9401 46.2375 17.8351 46.3425 17.6476L47.9025 14.9626C48.0525 14.7001 47.985 14.3626 47.7375 14.1901L46.125 13.0726C46.2675 12.4951 46.3275 11.9026 46.3275 11.3101C46.3275 10.7026 46.26 10.1101 46.125 9.54011L47.745 8.43011C47.9925 8.25761 48.0675 7.92011 47.91 7.65761L46.3575 4.96511C46.2075 4.70261 45.885 4.59761 45.6075 4.73261L43.83 5.56511C42.9525 4.74011 41.91 4.13261 40.7775 3.78761L40.62 1.83761C40.59 1.53011 40.3425 1.29761 40.035 1.29761H36.93C36.63 1.29761 36.375 1.53011 36.345 1.83761L36.1875 3.78011C35.055 4.12511 34.005 4.72511 33.1275 5.55761L31.35 4.69511C31.08 4.56011 30.75 4.66511 30.6 4.92761L29.0475 7.61261C28.8975 7.87511 28.965 8.21261 29.22 8.38511L30.825 9.49511C30.7875 9.63761 30.7575 9.78011 30.735 9.93011H2.265C1.02 9.93761 0 10.9501 0 12.2026V37.4176C0 38.6701 1.02 39.6826 2.265 39.6826ZM29.7 43.7326V45.3601C29.7 45.4651 29.61 45.5476 29.5125 45.5476H10.95C10.845 45.5476 10.77 45.4576 10.77 45.3601V43.7326C10.77 43.6276 10.86 43.5526 10.95 43.5526H29.505C29.61 43.5526 29.7 43.6351 29.7 43.7326ZM26.3475 42.3826H14.1225L15.0975 39.6826H25.3725L26.3475 42.3826ZM30.3225 7.73261L31.3425 5.98511L32.9925 6.76511C33.03 6.78011 33.075 6.79511 33.12 6.80261C33.1575 6.81011 33.195 6.81761 33.2325 6.81761C33.24 6.81761 33.24 6.81761 33.2475 6.81761C33.3075 6.81761 33.375 6.81011 33.4275 6.78761C33.465 6.77261 33.51 6.75761 33.54 6.73511C33.555 6.73511 33.57 6.72761 33.5775 6.71261C33.615 6.69761 33.645 6.66761 33.675 6.63761C34.5525 5.72261 35.6325 5.08511 36.8325 4.78511H36.84C36.855 4.78511 36.87 4.77761 36.885 4.77761C36.915 4.77011 36.9375 4.76261 36.9675 4.74761C37.1625 4.66511 37.3125 4.48511 37.335 4.26011L37.485 2.44511H39.5025L39.6525 4.26761C39.66 4.32761 39.675 4.38011 39.6975 4.42511C39.705 4.44761 39.7125 4.47011 39.7275 4.49261C39.75 4.53761 39.7725 4.57511 39.81 4.61261C39.885 4.70261 39.9825 4.76261 40.1025 4.78511C40.11 4.78511 40.125 4.79261 40.1325 4.79261C41.3325 5.08511 42.435 5.73011 43.305 6.64511C43.3425 6.68261 43.38 6.71261 43.425 6.73511C43.455 6.75761 43.4925 6.77261 43.53 6.78761C43.56 6.79511 43.59 6.81011 43.6125 6.81761C43.62 6.81011 43.6275 6.81761 43.635 6.81761C43.6725 6.82511 43.7025 6.82511 43.74 6.82511C43.7775 6.82511 43.815 6.82511 43.8525 6.81761C43.905 6.80261 43.95 6.78761 43.995 6.77261L45.6225 6.00011L46.6425 7.75511L45.135 8.79761C45.09 8.83511 45.045 8.87261 45.015 8.91761C44.985 8.94761 44.9625 8.98511 44.9475 9.02261C44.9325 9.05261 44.9175 9.08261 44.91 9.11261C44.9025 9.13511 44.895 9.15761 44.8875 9.18761C44.8725 9.27761 44.8725 9.36761 44.9025 9.45761C44.9025 9.46511 44.9025 9.46511 44.91 9.47261C45.075 10.0501 45.165 10.6726 45.165 11.3101C45.165 11.9326 45.075 12.5551 44.91 13.1551C44.9025 13.1626 44.9025 13.1626 44.9025 13.1701C44.85 13.3501 44.8875 13.5376 45 13.6801C45.015 13.7026 45.0375 13.7251 45.06 13.7476C45.0825 13.7701 45.105 13.7926 45.135 13.8151L46.635 14.8576L45.615 16.6051L44.0325 15.8626C44.01 15.8476 43.98 15.8326 43.9575 15.8251C43.9125 15.8026 43.875 15.7876 43.83 15.7801C43.7925 15.7576 43.755 15.7501 43.71 15.7501C43.65 15.7501 43.5825 15.7651 43.53 15.7801C43.4925 15.7951 43.455 15.8101 43.4175 15.8326C43.4025 15.8401 43.3875 15.8476 43.38 15.8551C43.3425 15.8776 43.3125 15.9076 43.2825 15.9376C42.42 16.8376 41.3325 17.4676 40.1175 17.7751C40.1025 17.7751 40.095 17.7826 40.08 17.7826C40.02 17.7976 39.96 17.8201 39.9225 17.8576C39.9075 17.8651 39.8925 17.8726 39.8775 17.8876C39.8625 17.9026 39.8475 17.9101 39.8325 17.9251C39.8025 17.9476 39.78 17.9701 39.7575 18.0001C39.735 18.0301 39.7125 18.0676 39.6975 18.0976C39.675 18.1276 39.66 18.1651 39.6525 18.2026C39.645 18.2326 39.6375 18.2551 39.6375 18.2851C39.63 18.2926 39.63 18.3076 39.63 18.3151L39.48 20.1376H37.455L37.305 18.3151C37.305 18.3076 37.305 18.2926 37.2975 18.2851C37.29 18.2401 37.2825 18.1951 37.2675 18.1501C37.26 18.1276 37.245 18.1051 37.23 18.0826C37.215 18.0526 37.2 18.0226 37.1775 18.0001C37.17 17.9851 37.1625 17.9701 37.1475 17.9626C37.1325 17.9476 37.125 17.9326 37.11 17.9251C37.08 17.8951 37.05 17.8726 37.02 17.8576C36.9675 17.8201 36.9075 17.7976 36.855 17.7826C36.8475 17.7826 36.8325 17.7751 36.825 17.7751C35.6175 17.4751 34.515 16.8301 33.6525 15.9226C33.6225 15.8926 33.5925 15.8626 33.555 15.8401C33.5475 15.8326 33.5325 15.8251 33.5175 15.8176C33.48 15.7951 33.4425 15.7801 33.405 15.7651C33.345 15.7501 33.2775 15.7351 33.225 15.7351C33.18 15.7351 33.1425 15.7426 33.0975 15.7501C33.0525 15.7576 33.0075 15.7726 32.97 15.7951C32.9475 15.8026 32.9175 15.8176 32.895 15.8326L31.32 16.5751L30.3 14.8201L31.8075 13.7776C31.83 13.7551 31.86 13.7326 31.8825 13.7101C31.905 13.6951 31.9275 13.6726 31.9425 13.6426C31.98 13.5901 32.01 13.5301 32.0325 13.4701C32.04 13.4476 32.0475 13.4251 32.055 13.3951C32.07 13.3051 32.07 13.2226 32.04 13.1251C31.995 12.9751 31.9575 12.8326 31.92 12.6751C31.92 12.6376 31.9125 12.6076 31.905 12.5776C31.815 12.1501 31.77 11.7151 31.77 11.2651C31.77 11.0176 31.785 10.7626 31.815 10.5151C31.8525 10.1551 31.9275 9.79511 32.025 9.45011C32.025 9.43511 32.0325 9.42761 32.0325 9.41261C32.0475 9.36011 32.055 9.30011 32.055 9.25511C32.055 9.15761 32.0325 9.06761 31.9875 8.98511C31.965 8.94011 31.9425 8.90261 31.9125 8.87261C31.8825 8.83511 31.845 8.79761 31.8 8.76761L30.3225 7.73261ZM29.0325 14.9326L30.585 17.6251C30.6975 17.8126 30.8925 17.9176 31.0875 17.9176C31.1775 17.9176 31.2525 17.9026 31.335 17.8576L33.105 17.0251C33.975 17.8426 35.025 18.4501 36.165 18.8026L36.3225 20.7526C36.345 20.9551 36.465 21.1276 36.6375 21.2101V36.3301H3.8325V13.2976H30.4575L29.205 14.1601C28.9575 14.3326 28.8825 14.6701 29.0325 14.9326ZM1.17 12.2026C1.17 11.5951 1.6575 11.1076 2.265 11.1076H30.6225C30.615 11.1676 30.615 11.2201 30.615 11.2726C30.615 11.5576 30.63 11.8426 30.6675 12.1201H3.2475C2.925 12.1201 2.6625 12.3826 2.6625 12.7051V36.9076C2.6625 37.2451 2.925 37.5001 3.2475 37.5001H37.23C37.5525 37.5001 37.815 37.2451 37.815 36.9151V21.2926H39.3V37.4176C39.3 38.0251 38.805 38.5051 38.205 38.5051H2.265C1.6575 38.5051 1.17 38.0251 1.17 37.4176V12.2026Z" fill="white"/>
<path d="M17.3175 18.45C17.0925 18.225 16.7175 18.225 16.4925 18.45L10.6125 24.3975C10.395 24.63 10.395 24.9975 10.6125 25.2225L16.4925 31.1775C16.6125 31.2975 16.755 31.3425 16.9125 31.3425C17.0625 31.3425 17.205 31.29 17.325 31.1775C17.55 30.9525 17.5575 30.585 17.3325 30.3525L11.8575 24.81L17.3325 19.2675C17.5575 19.0425 17.5575 18.675 17.3175 18.45ZM24.2025 19.275C23.5575 19.92 23.205 20.775 23.205 21.6825C23.205 22.005 23.46 22.2675 23.79 22.2675C24.1125 22.2675 24.375 22.005 24.375 21.6825C24.375 21.09 24.6 20.5275 25.0275 20.1C25.86 19.275 27.2925 19.245 28.1775 20.115C28.6125 20.5575 28.8525 21.1125 28.8525 21.6825C28.8525 22.7175 28.155 23.61 27.165 23.8575C26.0925 24.1275 25.3275 25.1175 25.3275 26.2575V27.9075C25.3275 28.23 25.59 28.4925 25.9125 28.4925C26.235 28.4925 26.4975 28.23 26.4975 27.9075V26.25C26.4975 25.6425 26.895 25.1325 27.45 24.99C28.965 24.6075 30.0225 23.25 30.0225 21.675C30.0225 20.79 29.6625 19.9425 29.0025 19.2825C28.35 18.63 27.5025 18.27 26.61 18.27C25.7025 18.2775 24.8475 18.63 24.2025 19.275ZM25.8975 29.295C25.575 29.295 25.3125 29.5575 25.3125 29.88V30.7575C25.3125 31.0875 25.575 31.3425 25.8975 31.3425C26.2275 31.3425 26.4825 31.0875 26.4825 30.7575V29.88C26.4825 29.5575 26.2275 29.295 25.8975 29.295Z" fill="white"/>
</svg>
