<svg width="25" height="24" viewBox="0 0 25 24" fill="none" xmlns="http://www.w3.org/2000/svg">
<g id="Engineer" clip-path="url(#clip0_416_1084)">
<path id="Vector" d="M21.9631 8.75062H20.4781C20.2715 7.80858 19.8988 6.91083 19.3775 6.09937L20.4294 5.0475C20.8344 4.6425 20.7931 3.945 20.3375 3.48938L19.5125 2.66438C19.2853 2.42994 18.9745 2.2951 18.6481 2.28938C18.5194 2.28754 18.3917 2.31129 18.2723 2.35925C18.1529 2.40721 18.0442 2.47842 17.9525 2.56875L16.9006 3.62063C16.0885 3.09967 15.1901 2.72761 14.2475 2.52187V1.03688C14.2494 0.463125 13.7281 0 13.0831 0H11.9188C11.2738 0 10.7506 0.463125 10.7506 1.03688V2.52375C9.80863 2.72962 8.91085 3.10168 8.09937 3.6225L7.0475 2.57063C6.95584 2.4803 6.84714 2.40908 6.72773 2.36112C6.60831 2.31316 6.48055 2.28941 6.35187 2.29125C6.02553 2.29718 5.71479 2.43199 5.4875 2.66625L4.6625 3.4875C4.205 3.94313 4.16563 4.64062 4.56875 5.04562L5.6225 6.0975C5.10182 6.90905 4.72977 7.8068 4.52375 8.74875H3.03688C2.46312 8.75062 2 9.27187 2 9.91687V11.0812C2 11.7262 2.46312 12.2494 3.03688 12.2494H4.52375C4.73004 13.1912 5.10207 14.0889 5.6225 14.9006L4.56875 15.9525C4.16375 16.3575 4.205 17.055 4.6625 17.5106L4.72438 17.5725C4.94514 17.4356 5.17296 17.3104 5.40688 17.1975L5.1875 16.9819C5.11271 16.9257 5.06163 16.8435 5.04428 16.7516C5.02694 16.6597 5.04458 16.5646 5.09375 16.485L6.58063 15L6.25625 14.4919C5.7835 13.7549 5.44573 12.9397 5.25875 12.0844L5.12937 11.4937H3.03688C2.90187 11.4937 2.75 11.3231 2.75 11.0756V9.91687C2.75 9.67125 2.90187 9.49875 3.03688 9.49875H5.1275L5.25688 8.90812C5.44347 8.05266 5.78127 7.23738 6.25437 6.50062L6.58063 6L5.10125 4.5225C5.07879 4.49717 5.06199 4.46735 5.05197 4.43502C5.04194 4.40269 5.03893 4.36859 5.04312 4.335C5.05128 4.21538 5.10259 4.10278 5.1875 4.01813L6.01625 3.1875C6.10338 3.09521 6.22318 3.04069 6.35 3.03562C6.38013 3.03395 6.41029 3.0384 6.43865 3.04871C6.46701 3.05903 6.49298 3.07499 6.515 3.09562L8 4.58063L8.50812 4.25437C9.24482 3.78116 10.0601 3.44336 10.9156 3.25688L11.5063 3.1275V1.03688C11.5063 0.901875 11.6788 0.75 11.9244 0.75H13.0887C13.3344 0.75 13.5069 0.901875 13.5069 1.03688V3.1275L14.0975 3.25688C14.953 3.44344 15.7683 3.78124 16.505 4.25437L17 4.57875L18.4775 3.10125C18.4995 3.08061 18.5255 3.06465 18.5539 3.05434C18.5822 3.04403 18.6124 3.03957 18.6425 3.04125C18.7693 3.04631 18.8891 3.10083 18.9762 3.19313L19.8013 4.01813C19.8762 4.07466 19.9273 4.15726 19.9443 4.24961C19.9613 4.34196 19.943 4.43734 19.8931 4.51688L18.4194 6L18.7456 6.50812C19.2194 7.24475 19.5578 8.06004 19.745 8.91562L19.8744 9.50625H21.9631C22.1 9.50625 22.25 9.67688 22.25 9.92438V11.0887C22.25 11.3344 22.0981 11.5069 21.9631 11.5069H19.8725L19.7431 12.0975C19.5555 12.953 19.2171 13.7682 18.7438 14.505L18.4194 15L19.8988 16.4775C19.9487 16.557 19.9669 16.6524 19.9499 16.7448C19.9329 16.8371 19.8819 16.9197 19.8069 16.9762L19.5687 17.2144C19.8008 17.3273 20.0268 17.4525 20.2456 17.5894L20.3375 17.4975C20.7931 17.04 20.8344 16.3444 20.4294 15.9394L19.3775 14.8875C19.8986 14.0759 20.2712 13.1782 20.4781 12.2362H21.9631C22.535 12.2362 23 11.7131 23 11.0681V9.91687C23 9.27187 22.535 8.75062 21.9631 8.75062ZM13.3775 17.88C13.1321 17.9434 12.8807 17.9811 12.6275 17.9925L12.9144 19.2731L11.9131 19.9744L12.3763 18C12.124 17.9958 11.8728 17.9669 11.6263 17.9137L10.6531 22.125C10.6142 22.2885 10.625 22.4599 10.6841 22.6173C10.7432 22.7746 10.848 22.9107 10.985 23.0081L11.735 23.7956C11.7557 23.8177 11.779 23.8372 11.8044 23.8538C12.0164 23.9619 12.2529 24.013 12.4906 24.0019C12.7054 24.0104 12.9194 23.9706 13.1169 23.8856C13.144 23.8707 13.1692 23.8524 13.1919 23.8312L13.9813 23.0981C14.1271 23.0098 14.2416 22.878 14.3088 22.7214C14.3761 22.5647 14.3927 22.3909 14.3563 22.2244L13.3775 17.88ZM11.405 22.2019L11.6675 21.0656L13.0981 20.0625L13.2744 20.8481C13.254 20.8576 13.2346 20.8689 13.2162 20.8819L11.405 22.2019ZM13.5687 22.4644C13.5416 22.4793 13.5164 22.4976 13.4938 22.5187L12.725 23.2313C12.5593 23.2593 12.3901 23.2593 12.2244 23.2313L11.8344 22.8187L13.4525 21.6413L13.6231 22.3913C13.6138 22.4216 13.5939 22.4476 13.5669 22.4644H13.5687Z" fill="#C12329"/>
<path id="Vector_2" d="M9.34808 16.5319C9.29183 16.4644 9.23558 16.395 9.18121 16.3256C8.87769 16.7607 8.41729 17.0611 7.89683 17.1637C7.70933 17.1919 3.37996 17.8988 3.15683 21.2569V21.2794C3.15683 21.2869 3.15683 21.4669 3.12683 23.5837C3.12683 23.6832 3.16634 23.7786 3.23667 23.8489C3.30699 23.9192 3.40237 23.9587 3.50183 23.9587C3.60129 23.9587 3.69667 23.9192 3.767 23.8489C3.83732 23.7786 3.87683 23.6832 3.87683 23.5837C3.90308 21.7087 3.90683 21.3487 3.90683 21.285C4.09433 18.5362 7.97371 17.8988 8.01871 17.8931C8.67897 17.7742 9.2727 17.4173 9.68746 16.89C9.56768 16.7771 9.45438 16.6575 9.34808 16.5319ZM17.0356 17.1656C16.7591 17.1082 16.497 16.9955 16.2651 16.8344C16.0331 16.6734 15.836 16.4671 15.6856 16.2281C15.5237 16.4251 15.3509 16.6129 15.1681 16.7906C15.5882 17.3674 16.2137 17.7607 16.9156 17.8894C16.955 17.8894 20.8381 18.5269 21.0218 21.2906C21.0209 21.3069 21.0209 21.3231 21.0218 21.3394C21.0218 21.3394 21.1193 21.8625 21.1193 23.6081C21.1193 23.7076 21.1588 23.803 21.2292 23.8733C21.2995 23.9436 21.3949 23.9831 21.4943 23.9831C21.5938 23.9831 21.6892 23.9436 21.7595 23.8733C21.8298 23.803 21.8693 23.7076 21.8693 23.6081C21.8693 21.9563 21.7868 21.3581 21.7625 21.2194C21.5262 17.8969 17.2137 17.1919 17.0356 17.1656ZM17 12.735C17.345 12.735 17.5962 12.6188 17.5625 12.2906L17.5118 11.0925C17.4762 10.7681 17.4987 10.4981 17.225 10.4981H16.9793C16.9793 10.4981 17.2643 8.46563 14.9806 6.90188C14.9806 6.90188 14.5868 5.91563 13.8387 5.8125H11.1612C10.4112 5.91375 10.0193 6.90188 10.0193 6.90188C7.73371 8.46563 8.01871 10.5 8.01871 10.5H7.78808C7.50308 10.5 7.52746 10.7662 7.49183 11.0944L7.43746 12.2888C7.40183 12.6169 7.65308 12.7331 7.99996 12.7331H8.34308C8.59439 13.9465 9.13394 15.0815 9.91621 16.0425C10.2252 16.414 10.6109 16.7142 11.0469 16.9227C11.4828 17.1311 11.9587 17.2427 12.4418 17.25C13.1344 17.2517 13.8048 17.0056 14.3318 16.5563C15.4568 15.6188 16.22 14.1562 16.6137 12.735H17ZM13.0625 6.5625L12.875 7.5H12.1381L11.9506 6.5625H13.0625ZM12.875 9.9375C12.875 10.0117 12.853 10.0842 12.8118 10.1458C12.7706 10.2075 12.712 10.2556 12.6435 10.284C12.5749 10.3123 12.4995 10.3198 12.4268 10.3053C12.3541 10.2908 12.2872 10.2551 12.2348 10.2027C12.1823 10.1502 12.1466 10.0834 12.1322 10.0107C12.1177 9.93792 12.1251 9.86252 12.1535 9.79399C12.1819 9.72547 12.2299 9.6669 12.2916 9.6257C12.3533 9.58449 12.4258 9.5625 12.5 9.5625C12.5994 9.5625 12.6948 9.60201 12.7651 9.67233C12.8354 9.74266 12.875 9.83804 12.875 9.9375ZM13.8481 15.9825C13.4562 16.3174 12.9573 16.501 12.4418 16.5C12.0678 16.4943 11.6994 16.4075 11.3621 16.2456C11.0248 16.0838 10.7266 15.8507 10.4881 15.5625C9.87405 14.8093 9.42671 13.9344 9.17558 12.9956L9.87496 13.3125H15.125L15.74 13.0275C15.3125 14.25 14.6468 15.3094 13.8481 15.9825ZM16.2087 11.985L14.9581 12.5625H10.0418L8.79308 11.985H8.20433L8.23621 11.25H8.88121L8.76121 10.395C8.76121 10.38 8.56246 8.80875 10.4487 7.52063L10.6362 7.39125L10.7206 7.17938C10.8141 6.93797 10.9764 6.72934 11.1875 6.57938C11.1858 6.6106 11.1858 6.6419 11.1875 6.67313L11.4087 7.73813C11.4333 7.88039 11.507 8.00953 11.6169 8.10307C11.7269 8.1966 11.8662 8.24859 12.0106 8.25H12.125V8.87812C11.8748 8.96659 11.6639 9.14065 11.5296 9.36955C11.3953 9.59846 11.3463 9.86746 11.3912 10.129C11.436 10.3906 11.5719 10.6279 11.7748 10.7989C11.9777 10.97 12.2346 11.0638 12.5 11.0638C12.7653 11.0638 13.0222 10.97 13.2251 10.7989C13.428 10.6279 13.5639 10.3906 13.6088 10.129C13.6536 9.86746 13.6046 9.59846 13.4703 9.36955C13.336 9.14065 13.1252 8.96659 12.875 8.87812V8.25H12.9912C13.133 8.24516 13.2687 8.19161 13.3756 8.09837C13.4825 8.00514 13.554 7.87791 13.5781 7.73813L13.7993 6.67313C13.801 6.6419 13.801 6.6106 13.7993 6.57938C14.0146 6.72679 14.1811 6.93503 14.2775 7.1775L14.375 7.39125L14.5625 7.52063C16.4056 8.7825 16.25 10.3331 16.25 10.395L16.0962 11.25H16.7656L16.7975 11.9869L16.2087 11.985Z" fill="#C12329"/>
</g>
<defs>
<clipPath id="clip0_416_1084">
<rect width="24" height="24" fill="white" transform="translate(0.5)"/>
</clipPath>
</defs>
</svg>
