<svg width="48" height="48" viewBox="0 0 48 48" fill="none" xmlns="http://www.w3.org/2000/svg">
<g clip-path="url(#clip0_1_294)">
<path d="M42.9263 17.5012H39.9563C39.5429 15.6172 38.7975 13.8217 37.755 12.1987L39.8587 10.095C40.6688 9.285 40.5863 7.89 39.675 6.97875L38.025 5.32875C37.5707 4.85989 36.949 4.5902 36.2962 4.57875C36.0389 4.57507 35.7834 4.62257 35.5445 4.71849C35.3057 4.81441 35.0883 4.95684 34.905 5.1375L32.8013 7.24125C31.1771 6.19935 29.3802 5.45521 27.495 5.04375V2.07375C27.4988 0.92625 26.4563 0 25.1663 0H22.8375C21.5475 0 20.5012 0.92625 20.5012 2.07375V5.0475C18.6173 5.45923 16.8217 6.20336 15.1987 7.245L13.095 5.14125C12.9117 4.96059 12.6943 4.81816 12.4555 4.72224C12.2166 4.62632 11.9611 4.57882 11.7037 4.5825C11.0511 4.59436 10.4296 4.86398 9.975 5.3325L8.325 6.975C7.41 7.88625 7.33125 9.28125 8.1375 10.0912L10.245 12.195C9.20365 13.8181 8.45954 15.6136 8.0475 17.4975H5.07375C3.92625 17.5012 3 18.5437 3 19.8337V22.1625C3 23.4525 3.92625 24.4988 5.07375 24.4988H8.0475C8.46008 26.3825 9.20414 28.1779 10.245 29.8013L8.1375 31.905C7.3275 32.715 7.41 34.11 8.325 35.0212L8.44875 35.145C8.89028 34.8712 9.34591 34.6209 9.81375 34.395L9.375 33.9637C9.22542 33.8513 9.12326 33.6871 9.08857 33.5032C9.05388 33.3194 9.08916 33.1292 9.1875 32.97L12.1613 30L11.5125 28.9837C10.567 27.5099 9.89147 25.8794 9.5175 24.1687L9.25875 22.9875H5.07375C4.80375 22.9875 4.5 22.6462 4.5 22.1512V19.8337C4.5 19.3425 4.80375 18.9975 5.07375 18.9975H9.255L9.51375 17.8162C9.88695 16.1053 10.5625 14.4748 11.5087 13.0012L12.1613 12L9.2025 9.045C9.15758 8.99435 9.12398 8.9347 9.10394 8.87004C9.08389 8.80537 9.07786 8.73718 9.08625 8.67C9.10257 8.43075 9.20517 8.20556 9.375 8.03625L11.0325 6.375C11.2068 6.19041 11.4464 6.08138 11.7 6.07125C11.7603 6.0679 11.8206 6.0768 11.8773 6.09743C11.934 6.11805 11.986 6.14997 12.03 6.19125L15 9.16125L16.0162 8.50875C17.4896 7.56233 19.1203 6.88672 20.8312 6.51375L22.0125 6.255V2.07375C22.0125 1.80375 22.3575 1.5 22.8488 1.5H25.1775C25.6687 1.5 26.0138 1.80375 26.0138 2.07375V6.255L27.195 6.51375C28.9059 6.88687 30.5365 7.56247 32.01 8.50875L33 9.1575L35.955 6.2025C35.999 6.16122 36.051 6.1293 36.1077 6.10868C36.1644 6.08805 36.2247 6.07915 36.285 6.0825C36.5386 6.09263 36.7782 6.20166 36.9525 6.38625L38.6025 8.03625C38.7525 8.14932 38.8545 8.31453 38.8886 8.49923C38.9226 8.68393 38.8861 8.87467 38.7863 9.03375L35.8387 12L36.4912 13.0162C37.4388 14.4895 38.1156 16.1201 38.49 17.8312L38.7487 19.0125H42.9263C43.2 19.0125 43.5 19.3538 43.5 19.8488V22.1775C43.5 22.6687 43.1963 23.0138 42.9263 23.0138H38.745L38.4862 24.195C38.111 25.9059 37.4342 27.5363 36.4875 29.01L35.8387 30L38.7975 32.955C38.8973 33.1141 38.9338 33.3048 38.8998 33.4895C38.8658 33.6742 38.7637 33.8394 38.6138 33.9525L38.1375 34.4287C38.6017 34.6547 39.0536 34.905 39.4912 35.1787L39.675 34.995C40.5863 34.08 40.6688 32.6888 39.8587 31.8787L37.755 29.775C38.7971 28.1519 39.5424 26.3565 39.9563 24.4725H42.9263C44.07 24.4725 45 23.4263 45 22.1362V19.8337C45 18.5437 44.07 17.5012 42.9263 17.5012ZM25.755 35.76C25.2641 35.8867 24.7614 35.9621 24.255 35.985L24.8288 38.5462L22.8263 39.9487L23.7525 36C23.2481 35.9917 22.7457 35.9339 22.2525 35.8275L20.3063 44.25C20.2284 44.577 20.2499 44.9199 20.3682 45.2346C20.4865 45.5493 20.696 45.8214 20.97 46.0163L22.47 47.5913C22.5114 47.6355 22.558 47.6745 22.6087 47.7075C23.0327 47.9239 23.5058 48.026 23.9813 48.0037C24.4109 48.0207 24.8388 47.9413 25.2337 47.7712C25.2881 47.7413 25.3384 47.7048 25.3838 47.6625L26.9625 46.1963C27.2541 46.0196 27.4832 45.7561 27.6177 45.4428C27.7522 45.1294 27.7853 44.7819 27.7125 44.4487L25.755 35.76ZM21.81 44.4038L22.335 42.1312L25.1963 40.125L25.5487 41.6963C25.5081 41.7152 25.4692 41.7378 25.4325 41.7638L21.81 44.4038ZM26.1375 44.9287C26.0832 44.9587 26.0328 44.9952 25.9875 45.0375L24.45 46.4625C24.1186 46.5186 23.7801 46.5186 23.4487 46.4625L22.6688 45.6375L25.905 43.2825L26.2463 44.7825C26.2277 44.8433 26.1877 44.8952 26.1338 44.9287H26.1375Z" fill="white"/>
<path d="M17.6962 33.0637C17.5837 32.9287 17.4712 32.79 17.3625 32.6512C16.7554 33.5214 15.8347 34.1223 14.7937 34.3275C14.4187 34.3838 5.75997 35.7975 5.31372 42.5138V42.5588C5.31372 42.5737 5.31372 42.9338 5.25372 47.1675C5.25372 47.3664 5.33274 47.5572 5.47339 47.6978C5.61405 47.8385 5.80481 47.9175 6.00372 47.9175C6.20264 47.9175 6.3934 47.8385 6.53405 47.6978C6.67471 47.5572 6.75372 47.3664 6.75372 47.1675C6.80622 43.4175 6.81372 42.6975 6.81372 42.57C7.18872 37.0725 14.9475 35.7975 15.0375 35.7863C16.358 35.5484 17.5455 34.8346 18.375 33.78C18.1354 33.5542 17.9088 33.3151 17.6962 33.0637ZM33.0712 34.3313C32.5182 34.2163 31.9941 33.991 31.5302 33.6689C31.0662 33.3467 30.6721 32.9343 30.3712 32.4563C30.0475 32.8503 29.7019 33.2259 29.3362 33.5813C30.1764 34.7348 31.4276 35.5215 32.8312 35.7788C32.91 35.7788 40.6762 37.0538 41.0437 42.5813C41.0419 42.6137 41.0419 42.6463 41.0437 42.6787C41.0437 42.6787 41.2387 43.725 41.2387 47.2163C41.2387 47.4152 41.3177 47.6059 41.4584 47.7466C41.599 47.8872 41.7898 47.9663 41.9887 47.9663C42.1876 47.9663 42.3784 47.8872 42.5191 47.7466C42.6597 47.6059 42.7387 47.4152 42.7387 47.2163C42.7387 43.9125 42.5737 42.7162 42.525 42.4387C42.0525 35.7937 33.4275 34.3838 33.0712 34.3313ZM33 25.47C33.69 25.47 34.1925 25.2375 34.125 24.5813L34.0237 22.185C33.9525 21.5363 33.9975 20.9963 33.45 20.9963H32.9587C32.9587 20.9963 33.5287 16.9313 28.9612 13.8038C28.9612 13.8038 28.1737 11.8313 26.6775 11.625H21.3225C19.8225 11.8275 19.0387 13.8038 19.0387 13.8038C14.4675 16.9313 15.0375 21 15.0375 21H14.5762C14.0062 21 14.055 21.5325 13.9837 22.1887L13.875 24.5775C13.8037 25.2338 14.3062 25.4663 15 25.4663H15.6862C16.1888 27.8929 17.268 30.1631 18.8325 32.085C19.4505 32.828 20.2219 33.4285 21.0938 33.8453C21.9657 34.2622 22.9174 34.4855 23.8837 34.5C25.2689 34.5033 26.6096 34.0112 27.6637 33.1125C29.9137 31.2375 31.44 28.3125 32.2275 25.47H33ZM25.125 13.125L24.75 15H23.2762L22.9012 13.125H25.125ZM24.75 19.875C24.75 20.0233 24.706 20.1683 24.6236 20.2917C24.5412 20.415 24.424 20.5111 24.287 20.5679C24.1499 20.6247 23.9991 20.6395 23.8537 20.6106C23.7082 20.5816 23.5745 20.5102 23.4696 20.4053C23.3648 20.3004 23.2933 20.1668 23.2644 20.0213C23.2354 19.8758 23.2503 19.725 23.3071 19.588C23.3638 19.4509 23.46 19.3338 23.5833 19.2514C23.7066 19.169 23.8516 19.125 24 19.125C24.1989 19.125 24.3897 19.204 24.5303 19.3447C24.671 19.4853 24.75 19.6761 24.75 19.875ZM26.6962 31.965C25.9124 32.6348 24.9147 33.002 23.8837 33C23.1356 32.9885 22.3988 32.815 21.7242 32.4913C21.0496 32.1676 20.4533 31.7014 19.9762 31.125C18.7482 29.6185 17.8535 27.8688 17.3512 25.9912L18.75 26.625H29.25L30.48 26.055C29.625 28.5 28.2937 30.6187 26.6962 31.965ZM31.4175 23.97L28.9162 25.125H19.0837L16.5862 23.97H15.4087L15.4725 22.5H16.7625L16.5225 20.79C16.5225 20.76 16.125 17.6175 19.8975 15.0413L20.2725 14.7825L20.4412 14.3588C20.6283 13.8759 20.9529 13.4587 21.375 13.1588C21.3716 13.2212 21.3716 13.2838 21.375 13.3463L21.8175 15.4763C21.8666 15.7608 22.014 16.0191 22.2339 16.2061C22.4539 16.3932 22.7325 16.4972 23.0212 16.5H23.25V17.7562C22.7496 17.9332 22.3278 18.2813 22.0592 18.7391C21.7907 19.1969 21.6926 19.7349 21.7824 20.258C21.8721 20.7812 22.1439 21.2557 22.5497 21.5978C22.9555 21.9399 23.4692 22.1276 24 22.1276C24.5307 22.1276 25.0444 21.9399 25.4502 21.5978C25.856 21.2557 26.1278 20.7812 26.2176 20.258C26.3073 19.7349 26.2093 19.1969 25.9407 18.7391C25.6721 18.2813 25.2504 17.9332 24.75 17.7562V16.5H24.9825C25.266 16.4903 25.5375 16.3832 25.7513 16.1967C25.9651 16.0103 26.1081 15.7558 26.1562 15.4763L26.5987 13.3463C26.6022 13.2838 26.6022 13.2212 26.5987 13.1588C27.0293 13.4536 27.3622 13.8701 27.555 14.355L27.75 14.7825L28.125 15.0413C31.8112 17.565 31.5 20.6662 31.5 20.79L31.1925 22.5H32.5312L32.595 23.9738L31.4175 23.97Z" fill="white"/>
</g>
<defs>
<clipPath id="clip0_1_294">
<rect width="48" height="48" fill="white"/>
</clipPath>
</defs>
</svg>
