<svg width="48" height="48" viewBox="0 0 48 48" fill="none" xmlns="http://www.w3.org/2000/svg">
<g clip-path="url(#clip0_1_285)">
<path d="M40.9688 7.03126C36.4462 2.63898 30.3769 0.202615 24.0727 0.248689C17.7684 0.294762 11.7354 2.81957 7.27748 7.27748C2.81957 11.7354 0.294762 17.7684 0.248689 24.0727C0.202615 30.3769 2.63898 36.4462 7.03126 40.9688C11.5539 45.361 17.6231 47.7974 23.9274 47.7513C30.2316 47.7053 36.2646 45.1804 40.7225 40.7225C45.1804 36.2646 47.7053 30.2316 47.7513 23.9274C47.7974 17.6231 45.361 11.5539 40.9688 7.03126ZM24 1.40626C26.9682 1.39821 29.9086 1.97896 32.6509 3.11491C35.3931 4.25086 37.8829 5.91944 39.9759 8.02407C40.8182 8.86603 41.5934 9.77254 42.2944 10.7353C38.7075 8.97845 35.9794 8.6897 33.9975 9.84845C32.9503 10.4616 32.3813 11.3372 31.8797 12.1106C31.3059 12.9938 30.8531 13.6922 29.8172 14.0016C28.0772 14.5209 25.7034 13.6631 25.0256 12.2691C24.6994 11.5978 24.8709 10.9791 25.0697 10.2619C25.2956 9.44532 25.5516 8.51907 24.9422 7.57688C24.2419 6.49407 23.0569 6.38438 21.6844 6.25688C20.6888 6.16313 19.56 6.06095 18.27 5.60063C16.938 5.11696 15.7162 4.37172 14.6766 3.40876C17.6058 2.0835 20.7849 1.4007 24 1.40626ZM14.3803 25.7944V24.5756L22.8225 28.2506C23.1943 28.4114 23.595 28.4944 24 28.4944C24.405 28.4944 24.8058 28.4114 25.1775 28.2506L33.6197 24.5756V31.7625C33.6197 31.9357 33.5512 32.102 33.4291 32.2249C33.3071 32.3478 33.1414 32.4175 32.9681 32.4188H15.0319C14.8578 32.4188 14.6909 32.3496 14.5678 32.2265C14.4448 32.1035 14.3756 31.9366 14.3756 31.7625V25.9538C14.3828 25.9009 14.3844 25.8475 14.3803 25.7944ZM24.6159 26.9588C24.4214 27.0427 24.2118 27.086 24 27.086C23.7882 27.086 23.5786 27.0427 23.3841 26.9588L14.3841 23.0391V20.7338C14.3841 20.5597 14.4532 20.3928 14.5763 20.2697C14.6994 20.1466 14.8663 20.0775 15.0403 20.0775H32.9681C33.1414 20.0787 33.3071 20.1484 33.4291 20.2714C33.5512 20.3943 33.6197 20.5605 33.6197 20.7338V23.0391L24.6159 26.9588ZM19.9688 18.675V16.3828C19.969 16.1723 20.0527 15.9705 20.2016 15.8216C20.3505 15.6727 20.5523 15.589 20.7628 15.5888H27.2316C27.4421 15.589 27.6439 15.6727 27.7928 15.8216C27.9416 15.9705 28.0254 16.1723 28.0256 16.3828V18.675H19.9688ZM8.02407 8.02407C9.59023 6.45402 11.3784 5.12233 13.3313 4.07157C14.6616 5.38407 16.1606 6.3422 17.7966 6.92532C19.2525 7.4447 20.5275 7.56282 21.5531 7.65751C22.7859 7.77188 23.4441 7.85345 23.7591 8.34001C24.0141 8.73376 23.9128 9.16313 23.7122 9.88688C23.4844 10.71 23.2013 11.7347 23.7591 12.8869C24.0114 13.3885 24.3666 13.8312 24.8016 14.1863H20.7656C20.1825 14.1863 19.6231 14.4175 19.2101 14.8292C18.7971 15.241 18.5642 15.7997 18.5625 16.3828V18.675H15.0319C14.4849 18.675 13.9603 18.8923 13.5735 19.2791C13.1867 19.6659 12.9694 20.1905 12.9694 20.7375V24.5813C12.0431 24.0009 11.1816 23.3831 10.5741 21.9741C9.85782 20.3109 10.0547 18.8391 10.2638 17.28C10.4963 15.54 10.7325 13.7409 9.53063 11.8856C8.87438 10.8769 7.92845 10.0622 6.70876 9.45563C7.12626 8.96438 7.5647 8.4872 8.02407 8.02407ZM8.02407 39.9759C4.19978 36.1515 1.8736 31.0826 1.46781 25.6893C1.06202 20.2961 2.60354 14.9361 5.81251 10.5825C6.93751 11.0906 7.79063 11.7834 8.35313 12.645C9.28126 14.0625 9.09376 15.4688 8.87438 17.0897C8.6597 18.6909 8.41688 20.5069 9.28688 22.5272C10.1231 24.4669 11.43 25.2769 12.48 25.9275C12.6516 26.0334 12.8156 26.1366 12.9741 26.2397V31.7606C12.9737 32.2165 13.1258 32.6594 13.4063 33.0188C12.7425 34.2188 11.8884 35.4394 10.9903 36.7238C10.1439 37.931 9.20346 39.0695 8.17782 40.1288L8.02407 39.9759ZM9.21282 41.0831C10.2808 39.9772 11.2604 38.7892 12.1425 37.53C13.0069 36.2944 13.8966 35.0213 14.5969 33.7716C14.7399 33.8021 14.8857 33.8175 15.0319 33.8175H30.8166C30.7716 34.9228 30.4838 35.8294 29.9259 36.63C29.1984 37.6753 28.3003 38.1253 27.1622 38.6925C25.8375 39.3553 24.3366 40.1063 22.815 41.9803C21.7776 43.27 20.9909 44.7426 20.4956 46.3219C16.3151 45.6773 12.4029 43.8608 9.21282 41.0831ZM39.9759 39.9759C37.8829 42.0806 35.3931 43.7492 32.6509 44.8851C29.9086 46.0211 26.9682 46.6018 24 46.5938C23.3006 46.5938 22.6069 46.5625 21.9188 46.5C22.3622 45.1818 23.035 43.9522 23.9063 42.8681C25.2366 41.2303 26.5313 40.5806 27.7913 39.9525C29.0034 39.3459 30.1481 38.7722 31.0809 37.4334C31.7981 36.4022 32.1731 35.2134 32.2228 33.8175H32.9728C33.519 33.8163 34.0424 33.5984 34.4282 33.2118C34.814 32.8251 35.0306 32.3012 35.0306 31.755V27.8813C37.2675 28.8075 40.4184 30.7575 44.4244 33.6938C43.3118 36.0269 41.8072 38.1518 39.9759 39.9759ZM35.0259 26.3709V20.7338C35.0259 20.1876 34.8093 19.6637 34.4235 19.277C34.0377 18.8903 33.5143 18.6725 32.9681 18.6713H29.4375V16.3828C29.4377 16.0912 29.3797 15.8024 29.2669 15.5334C29.5903 15.502 29.9099 15.4392 30.2213 15.3459C31.7541 14.8884 32.4488 13.8178 33.0619 12.8728C33.5194 12.1688 33.9506 11.5041 34.7109 11.0597C36.5859 9.96376 39.6581 10.6791 43.8497 13.1813C45.4345 16.1013 46.3589 19.3337 46.5576 22.6502C46.7564 25.9666 46.2247 29.2862 45 32.3747C40.6613 29.2116 37.3866 27.2391 35.0259 26.3709Z" fill="white"/>
</g>
<defs>
<clipPath id="clip0_1_285">
<rect width="48" height="48" fill="white"/>
</clipPath>
</defs>
</svg>
