<svg width="48" height="48" viewBox="0 0 48 48" fill="none" xmlns="http://www.w3.org/2000/svg">
<path d="M35.1086 44.5028H2.05717C1.64575 44.5028 1.37146 44.2285 1.37146 43.8171V4.18278C1.37146 3.77136 1.64575 3.49707 2.05717 3.49707H35.1086C35.52 3.49707 35.7943 3.77136 35.7943 4.18278V22.9028C35.7943 23.3142 35.52 23.5885 35.1086 23.5885C34.6972 23.5885 34.4229 23.3142 34.4229 22.9028V4.8685H2.74289V43.1314H34.4229V37.4399C34.4229 37.0285 34.6972 36.7542 35.1086 36.7542C35.52 36.7542 35.7943 37.0285 35.7943 37.4399V43.8171C35.7943 44.1599 35.4515 44.5028 35.1086 44.5028Z" fill="white"/>
<path d="M10.4914 13.097C8.77707 13.097 7.40564 11.7255 7.40564 10.0113C7.40564 8.29697 8.77707 6.92554 10.4914 6.92554C12.2056 6.92554 13.5771 8.29697 13.5771 10.0113C13.5771 11.7255 12.2056 13.097 10.4914 13.097ZM10.4914 8.22839C9.53135 8.22839 8.77707 8.98268 8.77707 9.94268C8.77707 10.9027 9.53135 11.657 10.4914 11.657C11.4514 11.657 12.2056 10.9027 12.2056 9.94268C12.2056 9.05125 11.4514 8.22839 10.4914 8.22839Z" fill="white"/>
<path d="M16.1828 20.297H4.79997C4.38854 20.297 4.11426 20.0227 4.11426 19.6113C4.11426 16.8684 5.82854 14.4684 8.43426 13.577C8.70854 13.5084 9.0514 13.577 9.18854 13.8513C9.46283 14.2627 9.94283 14.4684 10.4228 14.4684C10.9028 14.4684 11.3828 14.2627 11.7257 13.8513C11.9314 13.577 12.2057 13.5084 12.48 13.577C15.0857 14.4684 16.8 16.8684 16.8 19.6113C16.8685 19.9541 16.5943 20.297 16.1828 20.297ZM5.55426 18.9256H15.4971C15.2914 17.2113 14.1257 15.7027 12.5485 15.017C12 15.5655 11.3143 15.8398 10.4914 15.8398C9.73712 15.8398 8.98283 15.5655 8.50283 15.017C6.85711 15.7027 5.75997 17.2113 5.55426 18.9256Z" fill="white"/>
<path d="M30.9256 9.25717H20.3656C19.9542 9.25717 19.6799 8.98289 19.6799 8.57146C19.6799 8.16003 19.9542 7.88574 20.3656 7.88574H30.9256C31.3371 7.88574 31.6114 8.16003 31.6114 8.57146C31.6114 8.98289 31.2685 9.25717 30.9256 9.25717Z" fill="white"/>
<path d="M30.9256 14.5372H20.3656C19.9542 14.5372 19.6799 14.2629 19.6799 13.8515C19.6799 13.4401 19.9542 13.1658 20.3656 13.1658H30.9256C31.3371 13.1658 31.6114 13.4401 31.6114 13.8515C31.6114 14.2629 31.2685 14.5372 30.9256 14.5372Z" fill="white"/>
<path d="M30.9256 19.8172H20.3656C19.9542 19.8172 19.6799 19.5429 19.6799 19.1315C19.6799 18.7201 19.9542 18.4458 20.3656 18.4458H30.9256C31.3371 18.4458 31.6114 18.7201 31.6114 19.1315C31.6114 19.5429 31.2685 19.8172 30.9256 19.8172Z" fill="white"/>
<path d="M24 25.0973H4.79997C4.38854 25.0973 4.11426 24.823 4.11426 24.4115C4.11426 24.0001 4.38854 23.7258 4.79997 23.7258H24C24.4114 23.7258 24.6857 24.0001 24.6857 24.4115C24.6857 24.823 24.3428 25.0973 24 25.0973Z" fill="white"/>
<path d="M22.4228 30.4456H4.79997C4.38854 30.4456 4.11426 30.1714 4.11426 29.7599C4.11426 29.3485 4.38854 29.0742 4.79997 29.0742H22.4228C22.8343 29.0742 23.1085 29.3485 23.1085 29.7599C23.1085 30.1714 22.8343 30.4456 22.4228 30.4456Z" fill="white"/>
<path d="M24 35.7257H4.79997C4.38854 35.7257 4.11426 35.4514 4.11426 35.04C4.11426 34.6285 4.38854 34.3542 4.79997 34.3542H24C24.4114 34.3542 24.6857 34.6285 24.6857 35.04C24.6857 35.4514 24.3428 35.7257 24 35.7257Z" fill="white"/>
<path d="M30.9257 41.0057H4.79997C4.38854 41.0057 4.11426 40.7314 4.11426 40.32C4.11426 39.9086 4.38854 39.6343 4.79997 39.6343H30.9257C31.3371 39.6343 31.6114 39.9086 31.6114 40.32C31.6114 40.7314 31.2685 41.0057 30.9257 41.0057Z" fill="white"/>
<path d="M33.2572 38.3315C31.1315 38.3315 29.0743 37.5086 27.4972 35.9315C25.92 34.3543 25.0972 32.3658 25.0972 30.1715C25.0972 27.9772 25.92 25.92 27.4972 24.4115C29.0057 22.9029 31.0629 22.0115 33.2572 22.0115C35.4515 22.0115 37.5086 22.8343 39.0172 24.4115C41.76 27.1543 42.1715 31.4743 40.0457 34.6972C39.7715 35.1772 39.36 35.5886 39.0172 36C38.6057 36.3429 38.1943 36.6858 37.7143 37.0286C36.3429 37.92 34.8343 38.3315 33.2572 38.3315ZM33.2572 23.3829C31.4743 23.3829 29.76 24.0686 28.4572 25.3715C27.1543 26.6743 26.4686 28.3886 26.4686 30.1715C26.4686 31.9543 27.1543 33.6686 28.4572 34.9715C30.72 37.2343 34.2857 37.5772 36.96 35.8629C37.3029 35.5886 37.7143 35.3143 38.0572 34.9715C38.4 34.6286 38.6743 34.2858 38.9486 33.8743C40.7315 31.2 40.32 27.6343 38.0572 25.3715C36.7543 24.0686 35.04 23.3829 33.2572 23.3829Z" fill="white"/>
<path d="M43.9543 43.543H43.8857C43.1314 43.543 42.4457 43.2001 41.9657 42.6515L36.8229 36.8915C36.6857 36.7544 36.6171 36.5487 36.6857 36.343C36.6857 36.1372 36.8229 36.0001 36.96 35.863C37.3714 35.5887 37.7143 35.3144 38.0571 34.9715C38.4 34.6287 38.6743 34.2858 38.9486 33.8744C39.0857 33.7372 39.2229 33.6001 39.4286 33.6001C39.6343 33.6001 39.84 33.6687 39.9771 33.7372L45.7371 38.8801C46.2857 39.3601 46.6286 40.0458 46.6286 40.8001C46.6286 41.5544 46.3543 42.2401 45.8743 42.7201C45.3257 43.2687 44.7086 43.543 43.9543 43.543ZM38.4 36.5487L43.0629 41.7601C43.2686 42.0344 43.6114 42.1715 43.9543 42.1715C44.2971 42.1715 44.64 42.0344 44.9143 41.8287C45.1886 41.623 45.3257 41.2115 45.2571 40.8687C45.2571 40.5258 45.12 40.183 44.8457 39.9772L39.6343 35.3144C39.4286 35.5201 39.2229 35.7258 39.0171 35.9315C38.8114 36.1372 38.6057 36.343 38.4 36.5487Z" fill="white"/>
</svg>
