<svg width="48" height="48" viewBox="0 0 48 48" fill="none" xmlns="http://www.w3.org/2000/svg">
<path d="M20.16 25.2817C20.8678 25.2817 21.4416 24.7079 21.4416 24.0001C21.4416 23.2923 20.8678 22.7185 20.16 22.7185C19.4522 22.7185 18.8784 23.2923 18.8784 24.0001C18.8784 24.7079 19.4522 25.2817 20.16 25.2817Z" fill="white"/>
<path d="M23.4864 40.0705H23.352C23.1024 40.0292 22.8792 39.8911 22.7309 39.6862C22.5826 39.4812 22.5212 39.2261 22.56 38.9761C22.6626 38.273 22.9462 37.6087 23.3829 37.0483C23.8196 36.4878 24.3945 36.0506 25.0512 35.7793C25.1678 35.7314 25.2927 35.7069 25.4188 35.7073C25.5449 35.7076 25.6696 35.7328 25.786 35.7814C25.9023 35.83 26.0079 35.901 26.0968 35.9904C26.1857 36.0798 26.2561 36.1859 26.304 36.3025C26.3519 36.4191 26.3764 36.544 26.376 36.6701C26.3757 36.7961 26.3505 36.9209 26.3019 37.0372C26.2533 37.1536 26.1823 37.2592 26.0929 37.3481C26.0035 37.437 25.8974 37.5074 25.7808 37.5553C25.4333 37.6985 25.1289 37.9294 24.8975 38.2256C24.6661 38.5218 24.5156 38.873 24.4608 39.2449C24.4279 39.4781 24.3105 39.691 24.1308 39.8432C23.9512 39.9954 23.7218 40.0763 23.4864 40.0705Z" fill="white"/>
<path d="M20.1888 44.1601H20.1312C19.1483 44.1567 18.1993 43.8007 17.4567 43.1567C16.7142 42.5128 16.2273 41.6238 16.0848 40.6513L15.8832 39.2449C15.8284 38.873 15.6779 38.5218 15.4465 38.2256C15.2151 37.9294 14.9107 37.6985 14.5632 37.5553L14.5008 37.5265C14.1566 37.3895 13.7829 37.3432 13.4157 37.3919C13.0484 37.4407 12.6998 37.5829 12.4032 37.8049L11.2704 38.6545C10.4821 39.2415 9.50923 39.5261 8.52882 39.4565C7.5484 39.3869 6.62552 38.9678 5.928 38.2753L5.88 38.2321C5.18914 37.5335 4.77151 36.6104 4.70282 35.6303C4.63413 34.6501 4.91894 33.6778 5.5056 32.8897L6.3552 31.7569C6.57896 31.4517 6.72034 31.094 6.7657 30.7183C6.81106 30.3426 6.75888 29.9615 6.61418 29.6118C6.46948 29.2621 6.23714 28.9556 5.93957 28.7218C5.64199 28.488 5.2892 28.3347 4.9152 28.2769L3.5136 28.0753C2.54024 27.9338 1.65006 27.4474 1.00517 26.7047C0.360284 25.9621 0.00357452 25.0125 0 24.0289L0 23.9713C0.00340404 22.9884 0.359437 22.0394 1.00336 21.2968C1.64727 20.5543 2.53631 20.0674 3.5088 19.9249L4.9104 19.7233C5.2831 19.6692 5.63532 19.5191 5.93241 19.2877C6.2295 19.0562 6.46122 18.7514 6.6048 18.4033C6.60671 18.3873 6.60671 18.3712 6.6048 18.3553C6.74622 18.01 6.79579 17.634 6.74869 17.2639C6.70158 16.8937 6.5594 16.5421 6.336 16.2433L5.4864 15.1105C4.8994 14.3221 4.61482 13.3493 4.68441 12.3689C4.754 11.3885 5.17313 10.4656 5.8656 9.76809L5.904 9.72969C6.6012 9.03525 7.52472 8.61444 8.50624 8.54395C9.48775 8.47346 10.4619 8.758 11.2512 9.34569L12.384 10.1953C12.6853 10.4196 13.0396 10.5618 13.4123 10.6081C13.7851 10.6544 14.1634 10.6031 14.5104 10.4593H14.5584C14.9029 10.3149 15.2041 10.0839 15.4329 9.78871C15.6617 9.49348 15.8102 9.14409 15.864 8.77449L16.0656 7.36809C16.2044 6.38884 16.6922 5.49265 17.4392 4.84443C18.1862 4.19621 19.1422 3.83955 20.1312 3.84009H20.1888C21.1717 3.84349 22.1207 4.19953 22.8633 4.84344C23.6058 5.48736 24.0927 6.3764 24.2352 7.34889L24.4368 8.75529C24.4724 9.0099 24.4055 9.26824 24.2507 9.47348C24.0958 9.67872 23.8658 9.81404 23.6112 9.84969C23.3566 9.88533 23.0982 9.81838 22.893 9.66355C22.6878 9.50872 22.5524 9.2787 22.5168 9.02409L22.3152 7.62249C22.2409 7.10958 21.9858 6.64009 21.5959 6.29862C21.206 5.95716 20.707 5.76617 20.1888 5.76009H20.1312C19.6097 5.7616 19.106 5.95052 18.7122 6.2924C18.3183 6.63428 18.0604 7.10634 17.9856 7.62249L17.784 9.02409C17.6781 9.7277 17.3921 10.392 16.9537 10.9525C16.5154 11.513 15.9397 11.9507 15.2823 12.2231C14.625 12.4955 13.9084 12.5933 13.2021 12.5072C12.4958 12.421 11.8238 12.1537 11.2512 11.7313L10.1184 10.8817C9.69939 10.571 9.18302 10.4205 8.66269 10.4575C8.14236 10.4944 7.65245 10.7164 7.2816 11.0833L7.2432 11.1217C6.87635 11.4925 6.65436 11.9825 6.61738 12.5028C6.58041 13.0231 6.73089 13.5395 7.0416 13.9585L7.8912 15.0913C8.3102 15.6621 8.57457 16.3315 8.65867 17.0346C8.74277 17.7377 8.64375 18.4506 8.3712 19.1041V19.1521C8.0993 19.8047 7.66266 20.3756 7.104 20.8089C6.54533 21.2422 5.88376 21.5231 5.184 21.6241L3.7824 21.8257C3.26625 21.9005 2.79419 22.1584 2.45231 22.5522C2.11043 22.9461 1.92151 23.4497 1.92 23.9713V24.0289C1.9225 24.5502 2.11177 25.0533 2.45347 25.4469C2.79517 25.8406 3.26666 26.0987 3.7824 26.1745L5.184 26.4001C5.88761 26.506 6.55189 26.792 7.11239 27.2303C7.6729 27.6687 8.11058 28.2444 8.38298 28.9018C8.65538 29.5591 8.75324 30.2757 8.66708 30.982C8.58091 31.6883 8.31364 32.3603 7.8912 32.9329L7.0416 34.0657C6.73089 34.4847 6.58041 35.0011 6.61738 35.5214C6.65436 36.0417 6.87635 36.5316 7.2432 36.9025L7.2864 36.9457C7.65707 37.3115 8.14646 37.5324 8.66596 37.5685C9.18545 37.6046 9.7007 37.4535 10.1184 37.1425L11.2512 36.2929C11.8217 35.8694 12.4921 35.6005 13.1971 35.5123C13.9022 35.4241 14.6181 35.5196 15.2754 35.7896C15.9326 36.0595 16.509 36.4948 16.9485 37.0531C17.3881 37.6114 17.6759 38.2738 17.784 38.9761L17.9856 40.3777C18.0604 40.8938 18.3183 41.3659 18.7122 41.7078C19.106 42.0497 19.6097 42.2386 20.1312 42.2401H20.1888C20.7103 42.2386 21.214 42.0497 21.6078 41.7078C22.0017 41.3659 22.2596 40.8938 22.3344 40.3777L22.56 38.9761C22.5776 38.85 22.62 38.7287 22.6845 38.6189C22.7491 38.5092 22.8346 38.4133 22.9362 38.3366C23.0378 38.26 23.1536 38.2041 23.2768 38.1721C23.4 38.1402 23.5283 38.1328 23.6544 38.1505C23.7805 38.1681 23.9018 38.2104 24.0115 38.275C24.1213 38.3395 24.2172 38.4251 24.2939 38.5267C24.3705 38.6283 24.4264 38.7441 24.4584 38.8673C24.4903 38.9905 24.4976 39.1188 24.48 39.2449L24.2784 40.6513C24.1348 41.6311 23.6417 42.526 22.8901 43.1709C22.1385 43.8157 21.1791 44.1671 20.1888 44.1601Z" fill="white"/>
<path d="M25.44 12.3071C25.3113 12.3069 25.184 12.2808 25.0656 12.2303C24.4066 11.9578 23.8294 11.5193 23.3903 10.9573C22.9512 10.3954 22.6651 9.72929 22.56 9.02393C22.5424 8.89786 22.5497 8.76955 22.5817 8.64633C22.6136 8.5231 22.6695 8.40737 22.7462 8.30574C22.8228 8.20412 22.9188 8.11859 23.0285 8.05404C23.1382 7.98949 23.2596 7.94718 23.3856 7.92953C23.6402 7.89389 23.8986 7.96084 24.1038 8.11567C24.309 8.2705 24.4444 8.50052 24.48 8.75513C24.5348 9.12697 24.6853 9.4782 24.9167 9.77438C25.1481 10.0706 25.4525 10.3016 25.8 10.4447H25.848C26.0522 10.5317 26.22 10.6867 26.3228 10.8835C26.4255 11.0802 26.4569 11.3065 26.4117 11.5238C26.3664 11.741 26.2472 11.9359 26.0745 12.0753C25.9017 12.2146 25.686 12.2897 25.464 12.2879L25.44 12.3071ZM20.16 32.6399C17.8685 32.6399 15.6709 31.7296 14.0506 30.1093C12.4303 28.489 11.52 26.2914 11.52 23.9999C11.52 21.7085 12.4303 19.5108 14.0506 17.8905C15.6709 16.2702 17.8685 15.3599 20.16 15.3599C20.4146 15.3599 20.6588 15.4611 20.8388 15.6411C21.0189 15.8211 21.12 16.0653 21.12 16.3199C21.12 16.5745 21.0189 16.8187 20.8388 16.9988C20.6588 17.1788 20.4146 17.2799 20.16 17.2799C18.3778 17.2799 16.6685 17.9879 15.4083 19.2482C14.148 20.5084 13.44 22.2177 13.44 23.9999C13.44 25.7822 14.148 27.4914 15.4083 28.7517C16.6685 30.0119 18.3778 30.7199 20.16 30.7199C20.4146 30.7199 20.6588 30.8211 20.8388 31.0011C21.0189 31.1811 21.12 31.4253 21.12 31.6799C21.12 31.9345 21.0189 32.1787 20.8388 32.3588C20.6588 32.5388 20.4146 32.6399 20.16 32.6399ZM37.44 28.7999C36.4907 28.7999 35.5626 28.5184 34.7733 27.991C33.9839 27.4636 33.3687 26.7139 33.0054 25.8368C32.6421 24.9597 32.547 23.9946 32.7323 23.0635C32.9175 22.1324 33.3746 21.2771 34.0459 20.6058C34.7172 19.9345 35.5725 19.4774 36.5036 19.2922C37.4347 19.107 38.3998 19.202 39.2769 19.5653C40.154 19.9286 40.9036 20.5438 41.4311 21.3332C41.9585 22.1226 42.24 23.0506 42.24 23.9999C42.24 25.273 41.7343 26.4939 40.8341 27.394C39.934 28.2942 38.7131 28.7999 37.44 28.7999ZM37.44 21.1199C36.8704 21.1199 36.3136 21.2888 35.84 21.6053C35.3664 21.9218 34.9972 22.3716 34.7792 22.8978C34.5613 23.4241 34.5042 24.0031 34.6154 24.5618C34.7265 25.1205 35.0008 25.6336 35.4036 26.0364C35.8063 26.4392 36.3195 26.7135 36.8782 26.8246C37.4368 26.9357 38.0159 26.8787 38.5421 26.6607C39.0684 26.4427 39.5182 26.0736 39.8347 25.6C40.1511 25.1264 40.32 24.5695 40.32 23.9999C40.32 23.2361 40.0166 22.5036 39.4765 21.9635C38.9364 21.4234 38.2038 21.1199 37.44 21.1199ZM43.2 40.3199C42.2507 40.3199 41.3226 40.0384 40.5333 39.511C39.7439 38.9836 39.1287 38.2339 38.7654 37.3568C38.4021 36.4797 38.307 35.5146 38.4922 34.5835C38.6775 33.6524 39.1346 32.7971 39.8059 32.1258C40.4772 31.4545 41.3325 30.9974 42.2636 30.8122C43.1947 30.627 44.1598 30.722 45.0369 31.0853C45.914 31.4486 46.6636 32.0638 47.1911 32.8532C47.7185 33.6425 48 34.5706 48 35.5199C48 36.793 47.4943 38.0139 46.5941 38.914C45.694 39.8142 44.4731 40.3199 43.2 40.3199ZM43.2 32.6399C42.6304 32.6399 42.0736 32.8088 41.6 33.1253C41.1264 33.4418 40.7572 33.8916 40.5392 34.4178C40.3213 34.9441 40.2642 35.5231 40.3754 36.0818C40.4865 36.6405 40.7608 37.1536 41.1636 37.5564C41.5663 37.9592 42.0795 38.2335 42.6382 38.3446C43.1968 38.4557 43.7759 38.3987 44.3021 38.1807C44.8284 37.9627 45.2782 37.5936 45.5947 37.12C45.9111 36.6464 46.08 36.0895 46.08 35.5199C46.08 34.7561 45.7766 34.0236 45.2365 33.4835C44.6964 32.9434 43.9638 32.6399 43.2 32.6399Z" fill="white"/>
<path d="M33.6 24.9599H27.84C27.5854 24.9599 27.3412 24.8588 27.1612 24.6788C26.9812 24.4987 26.88 24.2545 26.88 23.9999C26.88 23.7453 26.9812 23.5011 27.1612 23.3211C27.3412 23.1411 27.5854 23.0399 27.84 23.0399H33.6C33.8546 23.0399 34.0988 23.1411 34.2789 23.3211C34.4589 23.5011 34.56 23.7453 34.56 23.9999C34.56 24.2545 34.4589 24.4987 34.2789 24.6788C34.0988 24.8588 33.8546 24.9599 33.6 24.9599ZM39.36 36.4799H31.68C31.4258 36.4789 31.1824 36.377 31.0032 36.1967L25.2432 30.4367C25.086 30.2531 25.0038 30.0169 25.0131 29.7752C25.0224 29.5336 25.1226 29.3044 25.2936 29.1335C25.4645 28.9625 25.6937 28.8623 25.9353 28.853C26.1769 28.8437 26.4132 28.9259 26.5968 29.0831L32.0784 34.5599H39.36C39.6146 34.5599 39.8588 34.6611 40.0389 34.8411C40.2189 35.0211 40.32 35.2653 40.32 35.5199C40.32 35.7745 40.2189 36.0187 40.0389 36.1988C39.8588 36.3788 39.6146 36.4799 39.36 36.4799ZM43.2 17.2799C42.2507 17.2799 41.3226 16.9984 40.5333 16.471C39.7439 15.9436 39.1287 15.1939 38.7654 14.3168C38.4021 13.4397 38.307 12.4746 38.4923 11.5435C38.6775 10.6124 39.1346 9.75711 39.8059 9.08582C40.4772 8.41453 41.3325 7.95737 42.2636 7.77216C43.1947 7.58696 44.1598 7.68201 45.0369 8.04531C45.914 8.40861 46.6637 9.02384 47.1911 9.8132C47.7185 10.6026 48 11.5306 48 12.4799C48 13.753 47.4943 14.9739 46.5941 15.874C45.694 16.7742 44.4731 17.2799 43.2 17.2799ZM43.2 9.59993C42.6304 9.59993 42.0736 9.76884 41.6 10.0853C41.1264 10.4018 40.7572 10.8516 40.5393 11.3778C40.3213 11.9041 40.2642 12.4831 40.3754 13.0418C40.4865 13.6005 40.7608 14.1136 41.1636 14.5164C41.5663 14.9192 42.0795 15.1935 42.6382 15.3046C43.1968 15.4157 43.7759 15.3587 44.3022 15.1407C44.8284 14.9227 45.2782 14.5536 45.5947 14.08C45.9111 13.6064 46.08 13.0495 46.08 12.4799C46.08 11.7161 45.7766 10.9836 45.2365 10.4435C44.6964 9.90336 43.9639 9.59993 43.2 9.59993Z" fill="white"/>
<path d="M25.92 19.2C25.7307 19.1992 25.5459 19.1425 25.3888 19.037C25.2317 18.9314 25.1092 18.7818 25.0369 18.6069C24.9646 18.4319 24.9456 18.2395 24.9823 18.0538C25.019 17.8682 25.1098 17.6975 25.2432 17.5632L31.0032 11.8032C31.1824 11.6229 31.4258 11.5211 31.68 11.52H39.36C39.6146 11.52 39.8588 11.6212 40.0388 11.8012C40.2189 11.9812 40.32 12.2254 40.32 12.48C40.32 12.7346 40.2189 12.9788 40.0388 13.1588C39.8588 13.3389 39.6146 13.44 39.36 13.44H32.0784L26.5968 18.9168C26.4176 19.0971 26.1742 19.1989 25.92 19.2Z" fill="white"/>
</svg>
