<svg width="68" height="46" viewBox="0 0 68 46" fill="none" xmlns="http://www.w3.org/2000/svg">
<path d="M0.803828 44.5V33.886H10.2588V12.414H16.1758L1.84083 20.344V8.266L14.1018 1.495H23.3738V33.886H32.2188V44.5H0.803828ZM50.8 45.232C45.3913 45.232 41.223 43.28 38.295 39.376C35.4077 35.4313 33.964 29.9007 33.964 22.784C33.964 15.6267 35.4077 10.1773 38.295 6.436C41.223 2.654 45.3913 0.763 50.8 0.763C56.2493 0.763 60.4177 2.654 63.305 6.436C66.1923 10.1773 67.636 15.6063 67.636 22.723C67.636 29.8803 66.1923 35.4313 63.305 39.376C60.4177 43.28 56.2493 45.232 50.8 45.232ZM50.8 34.862C52.3047 34.862 53.423 33.9267 54.155 32.056C54.887 30.1447 55.253 27.054 55.253 22.784C55.253 18.514 54.887 15.5047 54.155 13.756C53.423 12.0073 52.3047 11.133 50.8 11.133C49.2953 11.133 48.177 12.0073 47.445 13.756C46.713 15.5047 46.347 18.514 46.347 22.784C46.347 27.054 46.713 30.1447 47.445 32.056C48.177 33.9267 49.2953 34.862 50.8 34.862Z" fill="#C12329"/>
</svg>
