<svg width="67" height="45" viewBox="0 0 67 45" fill="none" xmlns="http://www.w3.org/2000/svg">
<path d="M0.803828 44.5V33.886H10.2588V12.414H16.1758L1.84083 20.344V8.266L14.1018 1.495H23.3738V33.886H32.2188V44.5H0.803828ZM36.282 44.5V34.862L48.665 22.052C50.129 20.5067 51.1457 19.246 51.715 18.27C52.325 17.2533 52.63 16.2367 52.63 15.22C52.63 13.9593 52.1827 13.024 51.288 12.414C50.434 11.7633 49.1937 11.438 47.567 11.438C46.103 11.438 44.5577 11.7227 42.931 12.292C41.345 12.8207 39.7183 13.6747 38.051 14.854L34.086 5.338C36.038 3.91466 38.3763 2.79633 41.101 1.983C43.8663 1.16967 46.6723 0.763 49.519 0.763C54.7243 0.763 58.669 1.88133 61.353 4.118C64.0777 6.314 65.44 9.486 65.44 13.634C65.44 16.2367 64.8707 18.7173 63.732 21.076C62.5933 23.4347 60.6007 25.956 57.754 28.64L48.787 37.18V33.886H66.965V44.5H36.282Z" fill="#C12329"/>
</svg>
