<svg width="48" height="48" viewBox="0 0 48 48" fill="none" xmlns="http://www.w3.org/2000/svg">
<path d="M41.03 18.0308C40.8466 18.0308 40.6632 18.04 40.4828 18.057C38.6824 12.9117 34.5883 8.81915 29.443 7.01721C29.46 6.83685 29.4692 6.65342 29.4692 6.46846C29.4692 3.17748 26.7917 0.5 23.4992 0.5C20.2083 0.5 17.5308 3.17748 17.5308 6.46846C17.5308 6.65342 17.54 6.83685 17.557 7.01721C12.4117 8.81761 8.3176 12.9117 6.51721 18.057C6.33686 18.04 6.15343 18.0308 5.96845 18.0308C2.67748 18.0308 0 20.7083 0 23.9992C0 27.2917 2.67748 29.9692 5.96845 29.9692C6.15343 29.9692 6.33686 29.96 6.51721 29.943C8.31915 35.0899 12.4117 39.1824 17.557 40.9813C17.54 41.1631 17.5308 41.345 17.5308 41.53C17.5308 44.8225 20.2083 47.5 23.4992 47.5C26.7917 47.5 29.4692 44.8225 29.4692 41.53C29.4692 41.345 29.46 41.1631 29.443 40.9828C34.5883 39.1809 38.6809 35.0883 40.4828 29.943C40.6632 29.96 40.845 29.9692 41.03 29.9692C44.3225 29.9692 47 27.2917 47 23.9992C47 20.7083 44.3225 18.0308 41.03 18.0308ZM23.4992 1.27072C26.3663 1.27072 28.6985 3.60292 28.6985 6.46846C28.6985 9.33553 26.3663 11.6677 23.4992 11.6677C20.6337 11.6677 18.3015 9.33553 18.3015 6.46846C18.3015 3.60292 20.6337 1.27072 23.4992 1.27072ZM5.96845 29.1985C3.10292 29.1985 0.770719 26.8663 0.770719 23.9992C0.770719 21.1337 3.10292 18.8015 5.96845 18.8015C8.83552 18.8015 11.1677 21.1337 11.1677 23.9992C11.1677 26.8663 8.83552 29.1985 5.96845 29.1985ZM23.4992 46.7293C20.6337 46.7293 18.3015 44.3971 18.3015 41.53C18.3015 38.6645 20.6337 36.3323 23.4992 36.3323C26.3663 36.3323 28.6985 38.6645 28.6985 41.53C28.6985 44.3971 26.3663 46.7293 23.4992 46.7293ZM29.3197 40.2105C28.717 37.5516 26.337 35.5616 23.4992 35.5616C20.663 35.5616 18.283 37.5516 17.6803 40.209C12.8602 38.4795 9.02204 34.6413 7.28947 29.8197C9.94845 29.217 11.9384 26.837 11.9384 23.9992C11.9384 21.1614 9.94691 18.783 7.28947 18.1803C9.02204 13.3602 12.8602 9.52205 17.6803 7.78946C18.283 10.4469 20.663 12.4384 23.4992 12.4384C26.337 12.4384 28.717 10.4484 29.3197 7.791C34.1398 9.52205 37.978 13.3602 39.7105 18.1803C37.0516 18.783 35.0616 21.1614 35.0616 23.9992C35.0616 26.837 37.0516 29.217 39.709 29.8197C37.978 34.6398 34.1398 38.478 29.3197 40.2105ZM41.03 29.1985C38.1645 29.1985 35.8323 26.8663 35.8323 23.9992C35.8323 21.1337 38.1645 18.8015 41.03 18.8015C43.8971 18.8015 46.2293 21.1337 46.2293 23.9992C46.2293 26.8663 43.8971 29.1985 41.03 29.1985Z" fill="white"/>
<path d="M34.7056 22.1032C34.6548 21.764 34.3966 21.4974 34.0631 21.4422L33.4484 21.3302C33.2193 20.4042 32.8612 19.5209 32.3848 18.6974L32.746 18.1816C32.9427 17.8992 32.9427 17.5254 32.7444 17.2477C32.0851 16.3218 31.2936 15.5094 30.3929 14.8327C30.1224 14.6292 29.7566 14.6292 29.483 14.8311L28.9712 15.1986C28.172 14.7112 27.3129 14.3452 26.4061 14.1039L26.3062 13.4792C26.2509 13.1385 25.9926 12.8735 25.6622 12.8214C24.5725 12.6479 23.4275 12.6479 22.3363 12.8214C22.0058 12.8735 21.7476 13.1385 21.6923 13.4792L21.5924 14.1086C20.6902 14.3437 19.828 14.7096 19.0165 15.2002L18.517 14.8327C18.2434 14.6307 17.8776 14.6307 17.6071 14.8327C16.7049 15.5094 15.9134 16.3234 15.254 17.2493C15.0573 17.5254 15.0573 17.9008 15.254 18.1816L15.6106 18.7053C15.1357 19.524 14.7807 20.4058 14.5455 21.3381L13.9369 21.4406C13.6034 21.4974 13.3452 21.7624 13.2944 22.1016C13.2099 22.6616 13.1669 23.2358 13.1669 23.8084C13.1669 24.381 13.2099 24.9568 13.2944 25.5152C13.3452 25.8543 13.6034 26.1209 13.9369 26.1762L14.5517 26.2897C14.7807 27.211 15.1357 28.0943 15.6121 28.9225L15.254 29.4352C15.0573 29.7175 15.0573 30.0914 15.254 30.369C15.9134 31.295 16.7049 32.1074 17.6071 32.7841C17.8761 32.9876 18.2419 32.9876 18.5154 32.7857L19.0195 32.415C19.8249 32.9072 20.6887 33.2731 21.5924 33.5082L21.6923 34.1376C21.7476 34.4799 22.0058 34.7449 22.3363 34.797C22.8819 34.8837 23.4413 34.9279 23.9992 34.9279C24.5571 34.9279 25.1166 34.8837 25.6622 34.797C25.9926 34.7449 26.2509 34.4799 26.3062 34.1376L26.4153 33.5066C27.3175 33.27 28.1782 32.904 28.9789 32.415L29.483 32.7857C29.7566 32.9876 30.1224 32.9876 30.3914 32.7841C31.2936 32.109 32.0851 31.2966 32.7444 30.369C32.9427 30.093 32.9427 29.7175 32.746 29.4368L32.3848 28.9194C32.8612 28.0975 33.2193 27.2125 33.4545 26.2787L34.0631 26.1762C34.3966 26.1194 34.6548 25.8543 34.7056 25.5152C34.7901 24.9552 34.8331 24.381 34.8331 23.8084C34.8331 23.2374 34.7901 22.6632 34.7056 22.1032ZM23.9992 28.178C21.6523 28.178 19.7434 26.2172 19.7434 23.8084C19.7434 21.3996 21.6523 19.4404 23.9992 19.4404C26.3461 19.4404 28.2566 21.3996 28.2566 23.8084C28.2566 26.2172 26.3461 28.178 23.9992 28.178ZM27.5204 8.4345C27.5204 8.94086 27.1515 9.37151 26.6612 9.43933C25.779 9.55922 24.8891 9.61917 23.9992 9.61917C23.1109 9.61917 22.221 9.55922 21.3372 9.43933C20.8485 9.37151 20.4796 8.94086 20.4796 8.4345C20.4796 6.88386 21.6247 5.58719 23.1017 5.43733C22.5069 4.93885 22.1272 4.01919 22.1272 3.33143C22.1272 2.28715 22.9326 1.5 23.9992 1.5C25.0674 1.5 25.8728 2.28715 25.8728 3.33143C25.8728 4.02077 25.4916 4.94201 24.8953 5.43891C26.3784 5.60927 27.5204 6.89489 27.5204 8.4345ZM27.5204 44.3153C27.5204 44.8217 27.1515 45.2523 26.6612 45.3202C25.779 45.4401 24.8891 45.5 23.9992 45.5C23.1109 45.5 22.221 45.4401 21.3372 45.3202C20.8485 45.2523 20.4796 44.8217 20.4796 44.3153C20.4796 42.7647 21.6247 41.468 23.1017 41.3182C22.5069 40.8197 22.1272 39.9 22.1272 39.2123C22.1272 38.168 22.9326 37.3808 23.9992 37.3808C25.0674 37.3808 25.8728 38.168 25.8728 39.2123C25.8728 39.9016 25.4916 40.8228 24.8953 41.3197C26.3784 41.4901 27.5204 42.7773 27.5204 44.3153ZM45 26.3749C45 26.8813 44.6311 27.3119 44.1408 27.3798C43.2586 27.4996 42.3688 27.5596 41.4789 27.5596C40.5905 27.5596 39.7006 27.4996 38.8169 27.3798C38.3281 27.3119 37.9593 26.8813 37.9593 26.3749C37.9593 24.8243 39.1043 23.5276 40.5813 23.3777C39.9865 22.8793 39.6069 21.9596 39.6069 21.2718C39.6069 20.2276 40.4122 19.4404 41.4789 19.4404C42.547 19.4404 43.3524 20.2276 43.3524 21.2718C43.3524 21.9612 42.9712 22.8824 42.3749 23.3793C43.8581 23.5497 45 24.8369 45 26.3749ZM10.0407 26.3749C10.0407 26.8813 9.67187 27.3119 9.18158 27.3798C8.29938 27.4996 7.40948 27.5596 6.5196 27.5596C5.63124 27.5596 4.74136 27.4996 3.85762 27.3798C3.36887 27.3119 3 26.8813 3 26.3749C3 24.8243 4.14502 23.5276 5.62202 23.3777C5.02723 22.8793 4.64761 21.9596 4.64761 21.2718C4.64761 20.2276 5.45296 19.4404 6.5196 19.4404C7.58778 19.4404 8.39313 20.2276 8.39313 21.2718C8.39313 21.9612 8.01197 22.8824 7.41564 23.3793C8.89878 23.5497 10.0407 24.8353 10.0407 26.3749Z" fill="white"/>
</svg>
