<svg width="27" height="28" viewBox="0 0 27 28" fill="none" xmlns="http://www.w3.org/2000/svg">
<g id="Global Job" clip-path="url(#clip0_415_976)">
<path id="Vector" d="M23.0449 4.45508C20.501 1.98443 17.087 0.613971 13.5409 0.639887C9.99472 0.665804 6.60116 2.08601 4.09359 4.59359C1.58601 7.10116 0.165804 10.4947 0.139887 14.0409C0.113971 17.587 1.48443 21.001 3.95508 23.5449C6.49904 26.0156 9.91299 27.386 13.4591 27.3601C17.0053 27.3342 20.3989 25.914 22.9064 23.4064C25.414 20.8989 26.8342 17.5053 26.8601 13.9591C26.886 10.413 25.5156 6.99904 23.0449 4.45508ZM13.5 1.29102C15.1696 1.28649 16.8236 1.61317 18.3661 2.25214C19.9086 2.89111 21.3091 3.82969 22.4865 5.01354C22.9603 5.48714 23.3963 5.99705 23.7906 6.53862C21.773 5.55038 20.2384 5.38795 19.1236 6.03975C18.5346 6.38463 18.2145 6.87717 17.9323 7.31223C17.6096 7.80899 17.3549 8.20186 16.7722 8.37589C15.7934 8.66803 14.4582 8.18551 14.0769 7.40135C13.8934 7.02377 13.9899 6.67573 14.1017 6.27231C14.2288 5.81299 14.3728 5.29198 14.03 4.762C13.6361 4.15292 12.9695 4.09122 12.1975 4.0195C11.6374 3.96676 11.0025 3.90928 10.2769 3.65036C9.52763 3.37829 8.84038 2.95909 8.25557 2.41743C9.90329 1.67197 11.6915 1.28789 13.5 1.29102ZM8.08893 15.0093V14.3238L12.8377 16.391C13.0468 16.4814 13.2722 16.5281 13.5 16.5281C13.7278 16.5281 13.9532 16.4814 14.1623 16.391L18.9111 14.3238V18.3664C18.9111 18.4639 18.8726 18.5574 18.8039 18.6265C18.7352 18.6957 18.642 18.7349 18.5446 18.7356H8.45543C8.35753 18.7356 8.26364 18.6967 8.19441 18.6274C8.12519 18.5582 8.08629 18.4643 8.08629 18.3664V15.099C8.09034 15.0693 8.09122 15.0392 8.08893 15.0093ZM13.8465 15.6643C13.7371 15.7115 13.6192 15.7359 13.5 15.7359C13.3808 15.7359 13.2629 15.7115 13.1535 15.6643L8.09104 13.4595V12.1627C8.09104 12.0648 8.12993 11.9709 8.19916 11.9017C8.26839 11.8325 8.36228 11.7936 8.46018 11.7936H18.5446C18.642 11.7943 18.7352 11.8335 18.8039 11.9026C18.8726 11.9718 18.9111 12.0653 18.9111 12.1627V13.4595L13.8465 15.6643ZM11.2324 11.0047V9.71534C11.2326 9.59692 11.2797 9.48339 11.3634 9.39966C11.4471 9.31592 11.5607 9.26882 11.6791 9.26868H15.3178C15.4362 9.26882 15.5497 9.31592 15.6334 9.39966C15.7172 9.48339 15.7643 9.59692 15.7644 9.71534V11.0047H11.2324ZM4.51354 5.01354C5.39451 4.13038 6.40032 3.38131 7.49883 2.79026C8.24713 3.52854 9.09036 4.06749 10.0106 4.39549C10.8295 4.68764 11.5467 4.75409 12.1236 4.80735C12.8171 4.87168 13.1873 4.91756 13.3645 5.19126C13.5079 5.41274 13.451 5.65426 13.3381 6.06137C13.21 6.52438 13.0507 7.10077 13.3645 7.74887C13.5064 8.03101 13.7062 8.28006 13.9509 8.47977H11.6807C11.3526 8.47977 11.038 8.60983 10.8057 8.84144C10.5734 9.07304 10.4424 9.38731 10.4414 9.71534V11.0047H8.45543C8.14774 11.0047 7.85265 11.1269 7.63508 11.3445C7.41751 11.5621 7.29528 11.8572 7.29528 12.1648V14.327C6.77426 14.0005 6.28963 13.653 5.94792 12.8604C5.54502 11.9249 5.65577 11.097 5.77336 10.22C5.90415 9.24126 6.03704 8.22928 5.36098 7.18567C4.99184 6.61825 4.45975 6.15999 3.77368 5.81879C4.00852 5.54247 4.25514 5.27405 4.51354 5.01354ZM4.51354 22.9865C2.36238 20.8352 1.0539 17.9839 0.825643 14.9502C0.597388 11.9166 1.46449 8.90158 3.26954 6.45266C3.90235 6.73848 4.38223 7.12819 4.69864 7.61282C5.22071 8.41016 5.11524 9.20118 4.99184 10.113C4.87108 11.0137 4.7345 12.0351 5.22387 13.1715C5.69426 14.2626 6.42938 14.7182 7.02001 15.0842C7.11651 15.1438 7.20879 15.2018 7.29792 15.2598V18.3654C7.29768 18.6218 7.38326 18.8709 7.54102 19.0731C7.16766 19.7481 6.68725 20.4347 6.18206 21.1571C5.70593 21.8362 5.17695 22.4766 4.60002 23.0724L4.51354 22.9865ZM5.18221 23.6093C5.78297 22.9872 6.33398 22.3189 6.83016 21.6106C7.31637 20.9156 7.81682 20.1995 8.21075 19.4965C8.29118 19.5137 8.37319 19.5224 8.45543 19.5224H17.3343C17.309 20.1441 17.1471 20.654 16.8333 21.1044C16.4241 21.6924 15.9189 21.9455 15.2787 22.2645C14.5336 22.6374 13.6893 23.0598 12.8334 24.1139C12.2499 24.8394 11.8074 25.6677 11.5288 26.5561C9.17725 26.1935 6.97666 25.1717 5.18221 23.6093ZM22.4865 22.9865C21.3091 24.1703 19.9086 25.1089 18.3661 25.7479C16.8236 26.3868 15.1696 26.7135 13.5 26.709C13.1066 26.709 12.7164 26.6914 12.3293 26.6563C12.5787 25.9147 12.9572 25.2231 13.4473 24.6133C14.1956 23.6921 14.9238 23.3266 15.6326 22.9733C16.3144 22.6321 16.9583 22.3094 17.483 21.5563C17.8865 20.9762 18.0974 20.3076 18.1253 19.5224H18.5472C18.8544 19.5217 19.1489 19.3991 19.3659 19.1816C19.5829 18.9641 19.7047 18.6694 19.7047 18.3622V16.1832C20.963 16.7042 22.7354 17.8011 24.9887 19.4527C24.3629 20.7651 23.5165 21.9604 22.4865 22.9865ZM19.7021 15.3337V12.1627C19.7021 11.8555 19.5802 11.5608 19.3632 11.3433C19.1462 11.1258 18.8518 11.0033 18.5446 11.0026H16.5586V9.71534C16.5587 9.55128 16.5261 9.38885 16.4626 9.23756C16.6446 9.21986 16.8243 9.18453 16.9995 9.1321C17.8617 8.87475 18.2524 8.27252 18.5973 7.74096C18.8547 7.34493 19.0972 6.97104 19.5249 6.72108C20.5796 6.10461 22.3077 6.50698 24.6655 7.91446C25.5569 9.557 26.0769 11.3752 26.1887 13.2407C26.3005 15.1062 26.0014 16.9735 25.3125 18.7108C22.872 16.9315 21.0299 15.822 19.7021 15.3337Z" fill="white"/>
</g>
<defs>
<clipPath id="clip0_415_976">
<rect width="27" height="27" fill="white" transform="translate(0 0.5)"/>
</clipPath>
</defs>
</svg>
