<svg width="128" height="89" viewBox="0 0 128 89" fill="none" xmlns="http://www.w3.org/2000/svg">
<g clip-path="url(#clip0_1_6)">
<path d="M31.242 27.9533H15.543L12.7918 34.3657C12.1145 35.9437 11.7759 37.1222 11.7759 37.9012C11.7759 38.5194 12.07 39.064 12.6581 39.535C13.2462 40.0037 14.516 40.3095 16.4698 40.4478V41.5571H3.7003V40.4478C5.39339 40.1488 6.49168 39.7582 6.99069 39.2783C8.00655 38.3185 9.13379 36.3723 10.3702 33.4372L24.6323 0H25.6793L39.7944 33.7943C40.9305 36.5106 41.962 38.2739 42.8887 39.0819C43.8154 39.8899 45.1053 40.3452 46.7605 40.4456V41.5549H30.763V40.4456C32.3782 40.3653 33.4698 40.0974 34.0378 39.6376C34.6059 39.1779 34.8911 38.6199 34.8911 37.9592C34.8911 37.0798 34.4923 35.6915 33.6948 33.7943L31.242 27.951V27.9533ZM30.4044 25.7347L23.5273 9.31626L16.4698 25.7347H30.4044Z" fill="white"/>
<path d="M84.3204 0L85.2472 13.8115H84.3204C83.084 9.67784 81.3197 6.70039 79.0273 4.88356C76.735 3.06673 73.9837 2.15832 70.7735 2.15832C68.0824 2.15832 65.6497 2.84354 63.4776 4.21174C61.3055 5.57994 59.5946 7.76281 58.3493 10.7581C57.104 13.7534 56.4802 17.4786 56.4802 21.9336C56.4802 25.6097 57.0684 28.7947 58.2446 31.4909C59.4209 34.1872 61.1897 36.254 63.5533 37.6936C65.9148 39.131 68.6126 39.8497 71.6423 39.8497C74.2733 39.8497 76.5968 39.285 78.6107 38.1578C80.6246 37.0307 82.8368 34.7876 85.2494 31.4329L86.1762 32.0311C84.1422 35.6469 81.7697 38.2918 79.0585 39.9702C76.3473 41.6487 73.1282 42.4856 69.399 42.4856C62.6801 42.4856 57.4783 39.9903 53.7891 34.9951C51.0378 31.2789 49.6633 26.9065 49.6633 21.8734C49.6633 17.8179 50.57 14.0949 52.3856 10.6979C54.199 7.30302 56.6963 4.67152 59.8753 2.80336C63.0543 0.935198 66.5296 0.00223198 70.2967 0.00223198C73.2262 0.00223198 76.1179 0.720928 78.9694 2.15832C79.807 2.59802 80.4041 2.81675 80.7627 2.81675C81.3018 2.81675 81.7697 2.62703 82.1684 2.2476C82.6875 1.70746 83.0551 0.959749 83.2756 0H84.3227H84.3204Z" fill="white"/>
<path d="M101.095 3.14506V19.2041H110.006C112.319 19.2041 113.865 18.8537 114.642 18.1551C115.678 17.2377 116.258 15.6196 116.378 13.3028H117.485V27.4446H116.378C116.099 25.467 115.819 24.1993 115.54 23.6391C115.182 22.9404 114.593 22.3914 113.776 21.9919C112.958 21.5923 111.702 21.3937 110.009 21.3937H101.098V34.7855C101.098 36.5823 101.178 37.6759 101.336 38.0665C101.496 38.4549 101.775 38.7652 102.174 38.995C102.572 39.2249 103.33 39.3388 104.446 39.3388H111.323C113.615 39.3388 115.28 39.1781 116.318 38.8589C117.354 38.5397 118.352 37.9103 119.307 36.9706C120.544 35.7319 121.809 33.866 123.106 31.3684H124.302L120.802 41.5551H89.5534V40.4458H90.9881C91.946 40.4458 92.8527 40.2159 93.7082 39.7561C94.3453 39.437 94.7797 38.9571 95.0092 38.3188C95.2387 37.6804 95.3523 36.3725 95.3523 34.3949V7.99961C95.3523 5.42391 95.0939 3.83474 94.5748 3.23657C93.8575 2.43753 92.6612 2.038 90.9859 2.038H89.5512V0.928711H120.8L121.248 9.82759H120.08C119.662 7.69159 119.198 6.22296 118.69 5.42391C118.182 4.62486 117.429 4.01553 116.434 3.59592C115.636 3.29684 114.23 3.14729 112.216 3.14729H101.093L101.095 3.14506Z" fill="white"/>
<path d="M121.063 46.2466H6.93722C3.1059 46.2466 0 49.3584 0 53.197V82.0475C0 85.886 3.1059 88.9978 6.93722 88.9978H121.063C124.894 88.9978 128 85.886 128 82.0475V53.197C128 49.3584 124.894 46.2466 121.063 46.2466Z" fill="#E51A20"/>
<path d="M9.62611 72.9566L12.6848 72.537C12.7672 74.4989 13.1326 75.8403 13.7853 76.5635C14.4381 77.2867 15.3403 77.6482 16.4943 77.6482C17.3453 77.6482 18.0782 77.4518 18.6975 77.0612C19.3146 76.6706 19.7401 76.1394 19.974 75.4676C20.2079 74.7958 20.3238 73.7244 20.3238 72.2536V54.5674H23.7144V72.0616C23.7144 74.2088 23.456 75.8738 22.9369 77.0523C22.4179 78.2308 21.5958 79.1303 20.473 79.7485C19.348 80.3668 18.0292 80.677 16.5143 80.677C14.2665 80.677 12.5445 80.0298 11.3504 78.733C10.1563 77.4362 9.58156 75.51 9.62834 72.9544L9.62611 72.9566Z" fill="white"/>
<path d="M26.4412 80.2396L36.2812 54.5674H39.9347L50.4207 80.2396H46.5578L43.5682 72.4656H32.8549L30.0412 80.2396H26.4412ZM33.8351 69.6979H42.5211L39.8478 62.5891C39.0325 60.4286 38.4265 58.6541 38.03 57.2658C37.7025 58.9108 37.2436 60.5468 36.6488 62.1695L33.8351 69.7002V69.6979Z" fill="white"/>
<path d="M53.1297 80.2396V54.5674H62.7959C64.4979 54.5674 65.7967 54.65 66.6945 54.8129C67.9531 55.0227 69.0069 55.4222 69.8579 56.0115C70.7089 56.6007 71.3928 57.4265 71.9118 58.489C72.4309 59.5514 72.6893 60.7187 72.6893 61.9909C72.6893 64.1738 71.9965 66.0219 70.6086 67.5329C69.2207 69.044 66.7167 69.8006 63.0922 69.8006H56.5203V80.2373H53.1297V80.2396ZM56.5203 66.7741H63.1434C65.3333 66.7741 66.8905 66.3656 67.8106 65.5487C68.7306 64.7318 69.1918 63.5823 69.1918 62.0981C69.1918 61.0245 68.92 60.1049 68.3786 59.3393C67.8373 58.5738 67.1222 58.0694 66.2378 57.8238C65.6675 57.6721 64.6115 57.5962 63.0744 57.5962H56.5203V66.7718V66.7741Z" fill="white"/>
<path d="M71.5354 80.2396L81.3754 54.5674H85.0289L95.5149 80.2396H91.652L88.6646 72.4656H77.9513L75.1376 80.2396H71.5376H71.5354ZM78.9271 69.6979H87.6131L84.9398 62.5891C84.1244 60.4286 83.5185 58.6541 83.1219 57.2658C82.7944 58.9108 82.3355 60.5468 81.7407 62.1695L78.9271 69.7002V69.6979Z" fill="white"/>
<path d="M98.1882 80.2396V54.5674H101.666L115.124 74.7221V54.5674H118.374V80.2396H114.896L101.438 60.067V80.2396H98.1882Z" fill="white"/>
</g>
<defs>
<clipPath id="clip0_1_6">
<rect width="128" height="89" fill="white"/>
</clipPath>
</defs>
</svg>
