<svg width="39" height="27" viewBox="0 0 39 27" fill="none" xmlns="http://www.w3.org/2000/svg">
<g id="Layer_1" clip-path="url(#clip0_404_898)">
<g id="Group">
<path id="Vector" d="M9.51906 8.4802H4.73577L3.8975 10.4256C3.69115 10.9043 3.58798 11.2618 3.58798 11.4981C3.58798 11.6857 3.67757 11.8509 3.85677 11.9938C4.03596 12.136 4.42286 12.2287 5.01814 12.2707V12.6072H1.12744V12.2707C1.64331 12.18 1.97794 12.0615 2.12998 11.9159C2.4395 11.6247 2.78296 11.0343 3.15967 10.1439L7.50515 0H7.82417L12.1248 10.2522C12.471 11.0763 12.7853 11.6112 13.0677 11.8563C13.35 12.1014 13.743 12.2395 14.2474 12.27V12.6065H9.37312V12.27C9.86523 12.2456 10.1978 12.1644 10.3709 12.0249C10.544 11.8854 10.6309 11.7161 10.6309 11.5157C10.6309 11.2489 10.5094 10.8278 10.2664 10.2522L9.51906 8.47952V8.4802ZM9.26384 7.80715L7.16848 2.82628L5.01814 7.80715H9.26384Z" fill="#003366"/>
<path id="Vector_2" d="M25.6914 0L25.9738 4.18999H25.6914C25.3147 2.93598 24.7771 2.0327 24.0787 1.48153C23.3802 0.930357 22.542 0.654771 21.5638 0.654771C20.7439 0.654771 20.0027 0.862646 19.3409 1.27772C18.6791 1.69279 18.1578 2.35501 17.7784 3.2637C17.3989 4.17239 17.2089 5.3025 17.2089 6.65402C17.2089 7.76923 17.3881 8.73547 17.7465 9.55343C18.1048 10.3714 18.6438 10.9984 19.364 11.4351C20.0835 11.8712 20.9054 12.0892 21.8286 12.0892C22.6302 12.0892 23.3381 11.9179 23.9518 11.576C24.5654 11.234 25.2394 10.5535 25.9745 9.53582L26.2569 9.71729C25.6371 10.8142 24.9142 11.6166 24.0882 12.1258C23.2621 12.635 22.2813 12.8889 21.145 12.8889C19.0979 12.8889 17.513 12.1319 16.3889 10.6165C15.5506 9.4891 15.1318 8.16263 15.1318 6.63574C15.1318 5.40542 15.4081 4.27599 15.9613 3.24542C16.5138 2.21552 17.2747 1.4172 18.2433 0.850458C19.2119 0.283712 20.2708 0.000677116 21.4186 0.000677116C22.3112 0.000677116 23.1922 0.218708 24.061 0.654771C24.3163 0.788163 24.4982 0.85452 24.6074 0.85452C24.7717 0.85452 24.9142 0.796965 25.0357 0.681856C25.1939 0.517994 25.3059 0.29116 25.3731 0H25.6921H25.6914Z" fill="#003366"/>
<path id="Vector_3" d="M30.8025 0.954114V5.82596H33.5176C34.2222 5.82596 34.6932 5.71966 34.9301 5.50772C35.2458 5.22942 35.4222 4.73852 35.4589 4.03567H35.7962V8.32588H35.4589C35.374 7.72595 35.2885 7.34135 35.2037 7.17139C35.0944 6.95946 34.9152 6.79289 34.6661 6.67168C34.417 6.55048 34.0342 6.49021 33.5183 6.49021H30.8032V10.5529C30.8032 11.098 30.8276 11.4298 30.8758 11.5483C30.9247 11.6661 31.0096 11.7602 31.1311 11.83C31.2526 11.8997 31.4833 11.9342 31.8234 11.9342H33.9188C34.6172 11.9342 35.1243 11.8855 35.4406 11.7886C35.7562 11.6918 36.0603 11.5009 36.3515 11.2158C36.7282 10.84 37.1137 10.2739 37.5088 9.51625H37.8733L36.8069 12.6066H27.2858V12.2701H27.723C28.0148 12.2701 28.2911 12.2003 28.5517 12.0608C28.7459 11.964 28.8782 11.8184 28.9481 11.6248C29.0181 11.4311 29.0527 11.0343 29.0527 10.4344V2.42684C29.0527 1.64545 28.9739 1.16334 28.8158 0.981876C28.5972 0.739469 28.2327 0.618265 27.7223 0.618265H27.2852V0.281738H36.8062L36.9427 2.9814H36.587C36.4594 2.3334 36.3182 1.88786 36.1635 1.64545C36.0087 1.40304 35.7793 1.21819 35.4759 1.09089C35.2329 1.00016 34.8046 0.954792 34.1909 0.954792H30.8019L30.8025 0.954114Z" fill="#003366"/>
</g>
<g id="Group_2">
<path id="Vector_4" d="M36.8863 14.0298H2.11368C0.946329 14.0298 0 14.9738 0 16.1383V24.8907C0 26.0552 0.946329 26.9993 2.11368 26.9993H36.8863C38.0537 26.9993 39 26.0552 39 24.8907V16.1383C39 14.9738 38.0537 14.0298 36.8863 14.0298Z" fill="#E51A20"/>
<g id="Group_3">
<path id="Vector_5" d="M2.93299 22.1328L3.86494 22.0055C3.89005 22.6007 4.00137 23.0077 4.20025 23.2271C4.39913 23.4464 4.67403 23.5561 5.02563 23.5561C5.28492 23.5561 5.50823 23.4965 5.69693 23.3781C5.88495 23.2596 6.0146 23.0984 6.08587 22.8946C6.15714 22.6908 6.19243 22.3658 6.19243 21.9195V16.5541H7.22552V21.8613C7.22552 22.5127 7.14678 23.0178 6.98863 23.3753C6.83048 23.7329 6.58001 24.0057 6.23791 24.1933C5.89513 24.3809 5.4933 24.475 5.03174 24.475C4.34686 24.475 3.82217 24.2786 3.45835 23.8852C3.09453 23.4918 2.91941 22.9075 2.93367 22.1322L2.93299 22.1328Z" fill="white"/>
<path id="Vector_6" d="M8.05627 24.3423L11.0544 16.5541H12.1676L15.3625 24.3423H14.1856L13.2746 21.9839H10.0104L9.15316 24.3423H8.05627ZM10.3091 21.1442H12.9556L12.1411 18.9876C11.8927 18.3322 11.708 17.7939 11.5872 17.3727C11.4874 17.8717 11.3476 18.3681 11.1664 18.8603L10.3091 21.1449V21.1442Z" fill="white"/>
<path id="Vector_7" d="M16.188 24.3423V16.5541H19.1332C19.6517 16.5541 20.0475 16.5791 20.321 16.6286C20.7045 16.6922 21.0256 16.8134 21.2849 16.9922C21.5441 17.1709 21.7525 17.4215 21.9107 17.7438C22.0688 18.0661 22.1476 18.4202 22.1476 18.8062C22.1476 19.4684 21.9365 20.029 21.5136 20.4874C21.0907 20.9459 20.3278 21.1754 19.2234 21.1754H17.2211V24.3416H16.188V24.3423ZM17.2211 20.2572H19.2391C19.9063 20.2572 20.3807 20.1333 20.6611 19.8855C20.9414 19.6377 21.0819 19.2889 21.0819 18.8387C21.0819 18.513 20.9991 18.234 20.8342 18.0018C20.6692 17.7695 20.4513 17.6165 20.1819 17.542C20.0081 17.4959 19.6864 17.4729 19.218 17.4729H17.2211V20.2565V20.2572Z" fill="white"/>
<path id="Vector_8" d="M21.796 24.3423L24.7941 16.5541H25.9073L29.1023 24.3423H27.9253L27.0151 21.9839H23.7509L22.8936 24.3423H21.7967H21.796ZM24.0482 21.1442H26.6947L25.8802 18.9876C25.6317 18.3322 25.4471 17.7939 25.3263 17.3727C25.2265 17.8717 25.0867 18.3681 24.9055 18.8603L24.0482 21.1449V21.1442Z" fill="white"/>
<path id="Vector_9" d="M29.9167 24.3423V16.5541H30.9763L35.0767 22.6684V16.5541H36.0671V24.3423H35.0075L30.9071 18.2225V24.3423H29.9167Z" fill="white"/>
</g>
</g>
</g>
<defs>
<clipPath id="clip0_404_898">
<rect width="39" height="27" fill="white"/>
</clipPath>
</defs>
</svg>
