<svg width="37" height="43" viewBox="0 0 37 43" fill="none" xmlns="http://www.w3.org/2000/svg">
<g id="Icon">
<path id="Vector" d="M23.4016 4.92933L18.5789 2.11621L13.7561 4.92933" stroke="white" stroke-width="3" stroke-linecap="round" stroke-linejoin="round"/>
<path id="Vector_2" d="M18.5789 2.11621V9.14902" stroke="white" stroke-width="3" stroke-miterlimit="10" stroke-linecap="round"/>
<path id="Vector_3" d="M13.7561 38.6865L18.5789 41.4996L23.4016 38.6865" stroke="white" stroke-width="3" stroke-linecap="round" stroke-linejoin="round"/>
<path id="Vector_4" d="M18.5789 41.5001V34.4673" stroke="white" stroke-width="3" stroke-miterlimit="10" stroke-linecap="round"/>
<path id="Vector_5" d="M35.4575 17.5451V11.9619L30.7851 9.19189" stroke="white" stroke-width="3" stroke-linecap="round" stroke-linejoin="round"/>
<path id="Vector_6" d="M35.4575 11.9624L29.5421 15.4788" stroke="white" stroke-width="3" stroke-miterlimit="10" stroke-linecap="round"/>
<path id="Vector_7" d="M1.70014 26.0713V31.6545L6.37256 34.4245" stroke="white" stroke-width="3" stroke-linecap="round" stroke-linejoin="round"/>
<path id="Vector_8" d="M1.70001 31.6541L7.61548 28.1377" stroke="white" stroke-width="3" stroke-miterlimit="10" stroke-linecap="round"/>
<path id="Vector_9" d="M30.7851 34.4676L35.4575 31.6545V26.0713" stroke="white" stroke-width="3" stroke-linecap="round" stroke-linejoin="round"/>
<path id="Vector_10" d="M35.4575 31.6541L29.5992 28.1377" stroke="white" stroke-width="3" stroke-miterlimit="10" stroke-linecap="round"/>
<path id="Vector_11" d="M6.37256 9.19189L1.70014 11.9619V17.5451" stroke="white" stroke-width="3" stroke-linecap="round" stroke-linejoin="round"/>
<path id="Vector_12" d="M1.70013 11.9624L7.6156 15.4788M18.5789 27.4346V21.8083M18.5789 21.8083L13.7561 18.9952M18.5789 21.8083L23.4016 18.9952" stroke="white" stroke-width="3" stroke-miterlimit="10" stroke-linecap="round"/>
</g>
</svg>
