<svg width="79" height="70" viewBox="0 0 79 70" fill="none" xmlns="http://www.w3.org/2000/svg">
<path fill-rule="evenodd" clip-rule="evenodd" d="M12.2777 66.0917C13.3472 66.0917 14.2222 66.9667 14.2222 68.0361C14.2222 69.1055 13.3472 69.9805 12.2777 69.9805C11.2083 69.9805 10.3333 69.1055 10.3333 68.0361C10.3333 66.9667 11.2083 66.0917 12.2777 66.0917ZM27.8333 66.0917H18.1111C17.0416 66.0917 16.1666 66.9667 16.1666 68.0361C16.1666 69.1055 17.0416 69.9805 18.1111 69.9805H27.8333C28.9027 69.9805 29.7777 69.1055 29.7777 68.0361C29.7777 66.9667 28.9027 66.0917 27.8333 66.0917ZM30.9639 13.65C28.1444 14.9917 25.5194 16.9556 23.1861 19.3472C21.4555 21.1167 19.8805 23.1194 18.5194 25.2778H8.38886C7.31942 25.2778 6.44442 26.1528 6.44442 27.2222C6.44442 28.2917 7.31942 29.1667 8.38886 29.1667H16.3222C14.1444 33.5417 12.7639 38.2861 12.375 42.7778H8.38886C7.31942 42.7778 6.44442 43.6528 6.44442 44.7222C6.44442 45.7917 7.31942 46.6667 8.38886 46.6667H12.3166C13.075 60.725 24.8389 66.1111 39.5 66.1111C43.6805 66.1111 47.6472 65.6639 51.1472 64.7111C52.6046 66.3758 54.4016 67.7091 56.4173 68.6214C58.4331 69.5336 60.6208 70.0037 62.8333 70C71.4277 70 78.3888 63.0389 78.3888 54.4444C78.3888 46.9972 73.1388 40.7555 66.1194 39.2389C64.5833 31.3055 60.1694 23.1 54.1416 17.7722C52.2361 16.1 50.1944 14.7 48.0166 13.6694L51.0305 5.54166C51.3027 4.80278 51.1083 3.94722 50.5055 3.42222C50.5055 3.42222 46.85 0 39.4805 0C32.1111 0 28.4555 3.42222 28.4555 3.42222C27.8527 3.94722 27.6583 4.80278 27.9305 5.54166L30.9444 13.6694L30.9639 13.65ZM62.8333 42.7583C69.2694 42.7583 74.5 47.9889 74.5 54.425C74.5 60.8611 69.2694 66.0917 62.8333 66.0917C56.3972 66.0917 51.1666 60.8611 51.1666 54.425C51.1666 47.9889 56.3972 42.7583 62.8333 42.7583ZM62.075 38.8889C60.5194 32.1028 56.7083 25.2194 51.575 20.6694C48.0555 17.5583 43.9333 15.5361 39.5 15.5361C34.425 15.5361 29.7777 18.1611 25.9666 22.05C20.0361 28.1167 16.1666 37.275 16.1666 45.1889C16.1666 57.9444 26.7444 62.2028 39.5 62.2028C42.825 62.2028 45.975 61.9111 48.8527 61.2694C47.8097 59.1389 47.2708 56.7971 47.2777 54.425C47.278 50.4308 48.8146 46.5898 51.5693 43.6976C54.3239 40.8054 58.0856 39.0836 62.075 38.8889ZM10.3333 56.3694H2.55553C1.48608 56.3694 0.611084 57.2444 0.611084 58.3139C0.611084 59.3833 1.48608 60.2583 2.55553 60.2583H10.3333C11.4027 60.2583 12.2777 59.3833 12.2777 58.3139C12.2777 57.2444 11.4027 56.3694 10.3333 56.3694ZM60.8888 48.5917V54.425C60.8888 55.4944 61.7638 56.3694 62.8333 56.3694H68.6666C69.7361 56.3694 70.6111 55.4944 70.6111 54.425C70.6111 53.3555 69.7361 52.4805 68.6666 52.4805H64.7777V48.5917C64.7777 47.5222 63.9027 46.6472 62.8333 46.6472C61.7638 46.6472 60.8888 47.5222 60.8888 48.5917ZM37.5555 33.1333C36.3741 33.3732 35.324 34.0435 34.609 35.0141C33.894 35.9847 33.5652 37.1863 33.6864 38.3857C33.8075 39.5852 34.37 40.6968 35.2646 41.5048C36.1593 42.3128 37.3222 42.7595 38.5277 42.7583H40.4722C40.725 42.7583 40.9777 42.8555 41.1527 43.05C41.3277 43.225 41.4444 43.4778 41.4444 43.7305C41.4444 43.9833 41.3472 44.2361 41.1527 44.4111C40.9721 44.5925 40.7282 44.6971 40.4722 44.7028H35.6111C34.5416 44.7028 33.6666 45.5778 33.6666 46.6472C33.6666 47.7167 34.5416 48.5917 35.6111 48.5917H37.5555V50.5361C37.5555 51.6055 38.4305 52.4805 39.5 52.4805C40.5694 52.4805 41.4444 51.6055 41.4444 50.5361V48.4944C42.5444 48.2744 43.5338 47.6789 44.2432 46.8099C44.9526 45.9409 45.3379 44.8523 45.3333 43.7305C45.3333 42.4278 44.8277 41.2028 43.9139 40.2889C43 39.375 41.775 38.8694 40.4722 38.8694H38.5277C38.4002 38.871 38.2738 38.8458 38.1566 38.7956C38.0394 38.7454 37.934 38.6712 37.8472 38.5778C37.6722 38.4028 37.5555 38.15 37.5555 37.8972C37.5555 37.6444 37.6527 37.3917 37.8472 37.2167C38.0279 37.0352 38.2717 36.9307 38.5277 36.925H43.3889C44.4583 36.925 45.3333 36.05 45.3333 34.9805C45.3333 33.9111 44.4583 33.0361 43.3889 33.0361H41.4444V31.0917C41.4444 30.0222 40.5694 29.1472 39.5 29.1472C38.4305 29.1472 37.5555 30.0222 37.5555 31.0917V33.1333ZM2.55553 42.7583C3.62497 42.7583 4.49997 43.6333 4.49997 44.7028C4.49997 45.7722 3.62497 46.6472 2.55553 46.6472C1.48608 46.6472 0.611084 45.7722 0.611084 44.7028C0.611084 43.6333 1.48608 42.7583 2.55553 42.7583ZM44.3805 12.2889C45.0416 10.5194 46.8694 5.58055 46.8694 5.58055C45.5861 4.86111 43.1166 3.85 39.5 3.85C35.8833 3.85 33.4139 4.86111 32.1305 5.58055L34.6194 12.2889C36.2139 11.8611 37.8472 11.6472 39.5 11.6472C41.1527 11.6472 42.8055 11.8806 44.3805 12.2889ZM8.38886 5.81389C9.4583 5.81389 10.3333 6.68889 10.3333 7.75833C10.3333 8.82778 9.4583 9.70278 8.38886 9.70278C7.31942 9.70278 6.44442 8.82778 6.44442 7.75833C6.44442 6.68889 7.31942 5.81389 8.38886 5.81389ZM23.9444 5.81389H14.2222C13.1527 5.81389 12.2777 6.68889 12.2777 7.75833C12.2777 8.82778 13.1527 9.70278 14.2222 9.70278H23.9444C25.0139 9.70278 25.8889 8.82778 25.8889 7.75833C25.8889 6.68889 25.0139 5.81389 23.9444 5.81389Z" fill="#C12329"/>
</svg>
