<svg width="83" height="74" viewBox="0 0 83 74" fill="none" xmlns="http://www.w3.org/2000/svg">
<path d="M57.2107 45.3288H44.9246C44.787 45.3288 44.6837 45.2256 44.6837 45.0879V26.7447C44.6837 26.6071 44.787 26.5038 44.9246 26.5038H53.1154M54.1476 20.825H28.4396C28.3019 20.825 28.1987 20.7217 28.1987 20.5841V2.2409C28.1987 2.10324 28.3019 2 28.4396 2H77.2744C77.4121 2 77.5153 2.10324 77.5153 2.2409V14.6991M56.7632 70.0041H28.6118C28.4741 70.0041 28.3709 69.9009 28.3709 69.7632V51.4545C28.3709 51.3168 28.4741 51.2136 28.6118 51.2136H55.6275M67.6382 39.9943V50.0779M38.592 45.3288H2.55951C2.42185 45.3288 2.3186 45.2256 2.3186 45.0879V26.7447C2.3186 26.6071 2.42185 26.5038 2.55951 26.5038H38.592C38.7296 26.5038 38.8329 26.6071 38.8329 26.7447V45.0535C38.8329 45.2256 38.7296 45.3288 38.592 45.3288ZM67.7754 71.9999C64.1962 71.9999 61.3054 69.109 61.3054 65.5299V51.7983C61.3054 51.3509 61.6495 51.0068 62.0969 51.0068H73.4538C73.9012 51.0068 74.2454 51.3509 74.2454 51.7983V65.5299C74.2454 69.0746 71.3201 71.9999 67.7754 71.9999ZM71.4581 12.9095C69.6341 8.84857 64.231 8.98623 62.5447 13.116L54.6637 32.6981C53.4247 36.4149 56.0058 40.3382 59.6538 40.3382H75.3814C79.1327 40.3382 81.6794 36.2429 80.3028 32.4916L71.4581 12.9095Z" stroke="#C12329" stroke-width="3" stroke-miterlimit="10"/>
</svg>
