<svg width="57" height="70" viewBox="0 0 57 70" fill="none" xmlns="http://www.w3.org/2000/svg">
<path d="M35.0625 8.75H39.4375V13.125H35.0625V8.75ZM43.8125 8.75H48.1875V13.125H43.8125V8.75ZM35.0625 17.5H39.4375V21.875H35.0625V17.5ZM43.8125 17.5H48.1875V21.875H43.8125V17.5ZM35.0625 26.25H39.4375V30.625H35.0625V26.25ZM43.8125 26.25H48.1875V30.625H43.8125V26.25ZM35.0625 35H39.4375V39.375H35.0625V35ZM43.8125 35H48.1875V39.375H43.8125V35ZM35.0625 43.75H39.4375V48.125H35.0625V43.75ZM43.8125 43.75H48.1875V48.125H43.8125V43.75ZM52.5625 0H30.6875C29.5272 0 28.4144 0.460936 27.5939 1.28141C26.7734 2.10188 26.3125 3.21468 26.3125 4.375V17.5H4.4375C3.27718 17.5 2.16438 17.9609 1.34391 18.7814C0.523436 19.6019 0.0625 20.7147 0.0625 21.875V65.625C0.0625 66.7853 0.523436 67.8981 1.34391 68.7186C2.16438 69.5391 3.27718 70 4.4375 70H52.5625C53.7228 70 54.8356 69.5391 55.6561 68.7186C56.4766 67.8981 56.9375 66.7853 56.9375 65.625V4.375C56.9375 3.21468 56.4766 2.10188 55.6561 1.28141C54.8356 0.460936 53.7228 0 52.5625 0ZM17.5625 65.625H13.1875V56.875H17.5625V65.625ZM21.9375 65.625V52.5H8.8125V65.625H4.4375V21.875H26.3125V65.625H21.9375ZM43.8125 65.625H39.4375V56.875H43.8125V65.625ZM52.5625 65.625H48.1875V52.5H35.0625V65.625H30.6875V4.375H52.5625V65.625ZM8.8125 26.25H13.1875V30.625H8.8125V26.25ZM17.5625 26.25H21.9375V30.625H17.5625V26.25ZM8.8125 35H13.1875V39.375H8.8125V35ZM17.5625 35H21.9375V39.375H17.5625V35ZM8.8125 43.75H13.1875V48.125H8.8125V43.75ZM17.5625 43.75H21.9375V48.125H17.5625V43.75Z" fill="#C12329"/>
</svg>
