<svg width="59" height="74" viewBox="0 0 59 74" fill="none" xmlns="http://www.w3.org/2000/svg">
<path id="Vector" d="M19.0063 19.3951C18.1779 19.3951 17.5063 20.0667 17.5063 20.8951C17.5063 21.7236 18.1779 22.3951 19.0063 22.3951V19.3951ZM40.0244 22.3951C40.8529 22.3951 41.5244 21.7236 41.5244 20.8951C41.5244 20.0667 40.8529 19.3951 40.0244 19.3951V22.3951ZM13.2436 65.4952C12.4152 65.4952 11.7436 66.1667 11.7436 66.9952C11.7436 67.8236 12.4152 68.4952 13.2436 68.4952V65.4952ZM45.7868 68.4952C46.6153 68.4952 47.2868 67.8236 47.2868 66.9952C47.2868 66.1667 46.6153 65.4952 45.7868 65.4952V68.4952ZM15.7608 21.623H17.2608V20.123H15.7608V21.623ZM43.2997 21.623V20.123H41.7997V21.623H43.2997ZM1.56689 72H0.0668945V73.5H1.56689V72ZM57.4333 72V73.5H58.9333V72H57.4333ZM19.4186 45.4727C18.9224 44.8093 17.9824 44.6737 17.319 45.1699C16.6556 45.666 16.52 46.6061 17.0162 47.2695L19.4186 45.4727ZM27.8134 61.7062C28.3095 62.3696 29.2496 62.5052 29.913 62.009C30.5764 61.5128 30.712 60.5728 30.2158 59.9094L27.8134 61.7062ZM28.6626 59.9094C28.1664 60.5728 28.302 61.5128 28.9654 62.009C29.6288 62.5052 30.5688 62.3696 31.065 61.7062L28.6626 59.9094ZM41.8622 47.2695C42.3584 46.6061 42.2228 45.666 41.5594 45.1699C40.896 44.6737 39.9559 44.8093 39.4598 45.4727L41.8622 47.2695ZM27.9094 71.7568C27.9094 72.5852 28.5809 73.2568 29.4094 73.2568C30.2378 73.2568 30.9094 72.5852 30.9094 71.7568H27.9094ZM30.9094 60.0497C30.9094 59.2213 30.2378 58.5497 29.4094 58.5497C28.5809 58.5497 27.9094 59.2213 27.9094 60.0497H30.9094ZM19.0063 22.3951H40.0244V19.3951H19.0063V22.3951ZM13.2436 68.4952H45.7868V65.4952H13.2436V68.4952ZM28.6645 10.0372V3.48613H25.6645V10.0372H28.6645ZM28.6645 3.48613C28.6645 3.42543 28.6865 3.40318 28.6776 3.41349C28.672 3.41999 28.6522 3.44071 28.6108 3.46119C28.5673 3.48277 28.5072 3.5 28.4383 3.5V0.5C26.7068 0.5 25.6645 2.06057 25.6645 3.48613H28.6645ZM28.4383 3.5H30.5311V0.5H28.4383V3.5ZM30.5311 3.5C30.4622 3.5 30.4022 3.48277 30.3586 3.4612C30.3172 3.44071 30.2974 3.42 30.2918 3.41349C30.283 3.40318 30.3049 3.42543 30.3049 3.48613H33.3049C33.3049 2.06056 32.2626 0.5 30.5311 0.5V3.5ZM30.3049 3.48613V10.0372H33.3049V3.48613H30.3049ZM31.6799 4.94007C38.871 5.98704 44.3778 12.1593 44.3778 19.6212H47.3778C47.3778 10.6446 40.7529 3.22942 32.1122 1.97137L31.6799 4.94007ZM44.3778 19.6212C44.3778 20.1433 44.3504 20.6339 44.296 21.1236L47.2776 21.4549C47.3445 20.8528 47.3778 20.2516 47.3778 19.6212H44.3778ZM14.7572 21.2184C14.6801 20.7047 14.6525 20.206 14.6525 19.6515H11.6525C11.6525 20.3102 11.6855 20.964 11.7904 21.6634L14.7572 21.2184ZM14.6525 19.6515C14.6525 12.1615 20.1874 5.98737 27.3807 4.94007L26.9484 1.97137C18.3099 3.22909 11.6525 10.6424 11.6525 19.6515H14.6525ZM9.78595 23.123H15.7608V20.123H9.78595V23.123ZM14.2608 21.623C14.2608 24.5138 16.6005 26.8535 19.4913 26.8535V23.8535C18.2573 23.8535 17.2608 22.8569 17.2608 21.623H14.2608ZM19.4913 26.8535H39.5692V23.8535H19.4913V26.8535ZM39.5692 26.8535C42.46 26.8535 44.7997 24.5138 44.7997 21.623H41.7997C41.7997 22.8569 40.8032 23.8535 39.5692 23.8535V26.8535ZM43.2997 23.123H49.3049V20.123H43.2997V23.123ZM40.8292 24.4742V30.904H43.8292V24.4742H40.8292ZM40.8292 30.904C40.8292 37.1446 35.7663 42.2332 29.5 42.2332V45.2332C37.4278 45.2332 43.8292 38.7968 43.8292 30.904H40.8292ZM29.5 42.2332C23.2594 42.2332 18.1707 37.1703 18.1707 30.904H15.1707C15.1707 38.8317 21.6072 45.2332 29.5 45.2332V42.2332ZM18.1707 30.904V24.2315H15.1707V30.904H18.1707ZM26.6024 42.8835V42.0646H23.6024V42.8835H26.6024ZM26.6024 42.0646C26.6024 41.9528 26.6891 41.8661 26.8008 41.8661V38.8661C25.0322 38.8661 23.6024 40.2959 23.6024 42.0646H26.6024ZM26.8008 41.8661H32.2601V38.8661H26.8008V41.8661ZM32.2601 41.8661C32.3719 41.8661 32.4585 41.9528 32.4585 42.0646H35.4585C35.4585 40.2959 34.0287 38.8661 32.2601 38.8661V41.8661ZM32.4585 42.0646V43.0351H35.4585V42.0646H32.4585ZM20.8424 41.5495V44.4308H23.8424V41.5495H20.8424ZM20.8424 44.4308C20.8424 44.6942 20.6344 44.9022 20.371 44.9022V47.9022C22.2913 47.9022 23.8424 46.351 23.8424 44.4308H20.8424ZM20.371 44.9022H18.2176V47.9022H20.371V44.9022ZM18.2176 44.9022C8.19945 44.9022 0.0668945 53.0347 0.0668945 63.0529H3.06689C3.06689 54.6916 9.8563 47.9022 18.2176 47.9022V44.9022ZM0.0668945 63.0529V72H3.06689V63.0529H0.0668945ZM1.56689 73.5H57.4333V70.5H1.56689V73.5ZM58.9333 72V63.0529H55.9333V72H58.9333ZM58.9333 63.0529C58.9333 53.0347 50.8007 44.9022 40.7825 44.9022V47.9022C49.1439 47.9022 55.9333 54.6916 55.9333 63.0529H58.9333ZM40.7825 44.9022H38.6595V47.9022H40.7825V44.9022ZM38.6595 44.9022C38.3961 44.9022 38.1881 44.6942 38.1881 44.4308H35.1881C35.1881 46.3511 36.7392 47.9022 38.6595 47.9022V44.9022ZM38.1881 44.4308V42.0954H35.1881V44.4308H38.1881ZM44.4689 47.0695V71.6665H47.4689V47.0695H44.4689ZM11.8042 47.0695V71.6665H14.8042V47.0695H11.8042ZM17.0162 47.2695L27.8134 61.7062L30.2158 59.9094L19.4186 45.4727L17.0162 47.2695ZM31.065 61.7062L41.8622 47.2695L39.4598 45.4727L28.6626 59.9094L31.065 61.7062ZM30.9094 71.7568V60.0497H27.9094V71.7568H30.9094Z" fill="#C12329"/>
</svg>
